<?xml version="1.0" encoding="utf-8"?>
<!-- Generator: Adobe Illustrator 27.9.0, SVG Export Plug-In . SVG Version: 6.00 Build 0)  -->
<svg version="1.1" id="Слой_1" xmlns="http://www.w3.org/2000/svg" xmlns:xlink="http://www.w3.org/1999/xlink" x="0px" y="0px"
	 viewBox="0 0 512 494.7" style="enable-background:new 0 0 512 494.7;" xml:space="preserve">
<path fill="white" d="M0,297.7c2.4-7.4,5.7-14.3,12.4-18.6c3.7-2.4,7.9-4,11.5-5.8c0-7.2-0.3-14.7,0.1-22.1c0.2-4.6,1-9.3,2.4-13.6
	c3.5-11,12-15.8,23.3-13c7.5,1.8,14.9,4.4,22.6,6.8c-2.6-8.2-3.3-16.5,0-24.9c3.3-8.4,9-14.6,17.2-18.5c14-6.5,27.7-3,40.8,10.5
	c8.1-9.5,18-16.1,30.2-18.9c11-2.5,21.4,0.5,32,2.8c7.6,1.6,15.2,3.5,22.7,5.4c2.8,0.7,4.6,0.4,5.3-3.1c0.9-4.5,2.7-8.9,3.6-13.4
	c0.3-1.4-0.6-3.8-1.8-4.7c-3.9-3.1-8.2-5.6-12.2-8.7c-7.9-6-11-15.4-8.1-24.9c2.8-9.2,6.1-18.2,9-27.4c0.9-2.8,2.4-4.5,5.4-3.6
	c3.2,1,3.1,3.6,2.3,6.1c-2.7,8.2-5.6,16.3-8.2,24.5c-0.8,2.4-1.1,5-1.8,8.4c6.9-2.4,12.8-4.2,18.6-6.6c1.3-0.5,2.3-2.6,2.8-4.2
	c3.5-10.4,6.7-20.8,10.1-31.2c1-3,1.4-7.4,6.1-6.1c4.8,1.4,2.7,5.3,1.7,8.3c-3.3,10.4-6.6,20.9-10.1,31.2c-0.8,2.5-0.4,3.9,1.5,5.5
	c16.5,13.7,33,27.5,49.6,41c1.4,1.1,3.9,1.4,5.8,1.4c2.6-0.1,5.2-1.2,7.8-1.2c3.6-0.1,4.2-1.8,4.5-5c1.4-16.2,3.1-32.4,5-48.6
	c0.2-1.7,2.1-4.3,3.4-4.4c1.5-0.2,3.9,1.6,4.7,3.2c3.9,7.8,7.4,15.9,11.4,24.5c5.4-3.7,10.4-7.1,15.7-10.7
	c-5.8-14.2-12.2-27.9-16.9-42.2c-4.9-14.9-14.1-23.2-29.6-24.6c-3.4-0.3-6.9,0-10.3-0.4c-6.2-0.7-12.4-1.6-18.5-2.7
	c-10.3-1.8-20.7-3.7-30.9-0.1c-6.4,2.3-10.8,7-13.3,13.4c-1.1,2.8-1.7,5.8-3.3,8.3c-0.8,1.3-3.3,2.7-4.6,2.4
	c-1.3-0.3-2.9-2.9-2.8-4.4c0.8-14.9,16.1-29.3,31.4-29.8c3.3-0.1,6.5,0,10.5,0c-4.8-7.6-7.3-15.2-6.3-23.6
	c1.7-14.7,9.8-24.2,23.6-29.2c0.9-0.3,1.7-0.8,2.6-1.2c4.3,0,8.6,0,13,0c0.6,0.3,1.1,0.7,1.7,0.9c25.8,7.6,33.8,37.2,15.2,56.6
	c-0.6,0.6-1.1,1.2-2,2.1c1.4,0.5,2.3,1,3.4,1.2c12,2.6,20.1,9.6,24.7,21c6.2,15.5,12.4,31.1,19,46.5c1,2.5,3.3,5,5.7,6.3
	c12.5,6.9,25.3,13.2,37.8,20.2c4,2.2,7.8,2.7,12.2,1.9c16.5-3.1,33-5.9,49.5-8.7c10.9-1.9,19.8,3.4,22.2,12.8
	c2.5,9.8-3.1,18.6-13.9,21.9c-45.8,14-91.6,27.9-137.4,41.8c-1.5,0.5-3,1-4.4,2.3c10.2,0.9,20.4,1.9,30.7,2.7
	c26.3,2.2,52.6,4.5,79,6.7c9.9,0.8,19.9,1.7,29.8,2.4c12.5,0.9,20.2,7,20.9,17.7c0.3,4.1-1.3,8.4-2.1,12.7
	c13.4,2.2,22.6,9.8,26,23.8c0.5,2.2,0.6,4.6,0.6,6.9c0,32.4,0,64.9,0,97.3c0,6.4-0.7,7.1-7.2,7.1c-8.1,0-16.3,0-24.5,0
	c-3,0-6-0.1-6.2-4c-0.2-4.1,3-4.1,5.9-4.1c7.8,0,15.6,0,23.7,0c0.1-2,0.3-3.6,0.3-5.2c0-29.8-0.2-59.5,0.1-89.3
	c0.2-12.6-8.6-24.3-24.2-24.3c-148.9,0.2-297.7,0.3-446.6,0C16,281.4,7.7,293.7,7.8,306C8.3,335.6,8,365.2,8,394.8
	c0,1.6,0,3.3,0,5.2c13.5,0,26.5,0,40.2,0c0-2.9,0-5.5,0-8.1c0-13.5,0-26.9,0-40.4c0-3.2-0.7-7.5,4.1-7.6c4.9-0.1,4.3,4.2,4.3,7.4
	c0,14.3,0,28.6,0,42.9c0,1.8,0,3.6,0,5.8c26.5,0,52.5,0,79.3,0c0-1.8,0-3.5,0-5.3c0-13,0-25.9,0-38.9c0-3,0.7-5.6,4.1-5.6
	c3.5,0,4,2.7,4,5.7c-0.1,12.8,0,25.6,0,38.4c0,1.8,0,3.6,0,5.8c51,0,101.6,0,152.8,0c0-2,0-3.8,0-5.5c0-19.8,0-39.6,0-59.4
	c0-1.5-0.3-3.3,0.4-4.4c0.8-1.3,2.6-2.8,4-2.8c1.3,0,2.9,1.8,3.6,3.2c0.7,1.4,0.3,3.3,0.3,4.9c0,19.5,0,38.9,0,58.4
	c0,1.8,0,3.6,0,5.7c24.3,0,48,0,72.4,0c0-1.8,0-3.5,0-5.3c0-19,0-37.9,0.1-56.9c0-1.8,0.6-3.9,1.7-5.4c0.5-0.7,3.2-1,4-0.3
	c1.2,1,2.1,3,2.2,4.6c0.2,11.3,0.1,22.6,0.1,33.9c0,9.6,0,19.3,0,29.7c2,0,3.8,0,5.5,0c22,0,43.9,0,65.9,0c1.5,0,3.2-0.4,4.4,0.2
	c1.5,0.8,3.4,2.4,3.6,3.8c0.2,1.1-1.7,3.1-3.1,3.8c-1.3,0.7-3.2,0.3-4.9,0.3c-34.6,0-69.2,0-103.8,0c-2,0-4,0-6.3,0
	c0,7,0,13.7,0,21.2c5.3,0,10.7,0,16.2,0c18.3,0,27.5,6.8,32.9,24.9c2.8,0,5.7,0.1,8.7,0c3.5-0.1,5.4,1.6,5.4,5
	c0.1,8.3,0.1,16.6,0,24.9c0,3.8-2.2,5-5.9,5c-16.8-0.1-33.6-0.1-50.4-0.1c-63.9,0-127.7,0-191.6,0c-1.5,0-3.3,0.5-4.4-0.2
	c-1.5-0.8-3.5-2.5-3.5-3.8c0-1.3,1.9-3.1,3.4-3.9c1.2-0.6,2.9-0.2,4.4-0.2c77.7,0,155.3,0,233,0c2,0,3.9,0,6.2,0
	c0-6.3,0-12.1,0-18.4c-98,0-196.1,0-294.5,0c0,5.9,0,11.9,0,18.4c10.9,0,21.7,0,32.4,0c1.5,0,3.3-0.2,4.3,0.6c1.1,0.8,2.4,3.1,1.9,4
	c-0.7,1.4-2.7,3.1-4.2,3.2c-6.5,0.3-13,0.2-19.5,0.2c-6,0-12-0.1-18,0c-4.1,0.1-5.7-1.8-5.7-5.7c0.1-7.8,0.1-15.6,0-23.4
	c0-3.9,1.6-5.9,5.7-5.8c2.5,0.1,4.9,0,6.4,0c3-5.5,5-10.6,8.3-14.8c5.5-7.1,13.5-9.9,22.4-10c6.4-0.1,12.9,0,19.6,0
	c0-7.1,0-13.7,0-21.2c-1.8,0-3.7,0-5.6,0c-48.9,0-97.8,0-146.7-0.1c-2.7,0-5.3-1.2-8-1.8C0,370.2,0,334,0,297.7z M253.2,196.1
	c12.4,9,13.7,18.7,4.4,30.3c-11.3,14.2-22.5,28.4-33.8,42.6c-0.8,1.1-1.5,2.3-2.4,3.5c42.6,0,84.6,0,126.5,0c0-10.6,0-20.8,0-31.3
	c-14.9-1.2-29.4-2.3-44-3.5c-2.8-0.2-6.5-0.6-6.2-4.2c0.1-1.7,3.1-4,5.2-4.7c15-4.8,30-9.3,45.1-14c0-11.7,0-23.1,0-35.1
	C316.5,185.2,285.2,190.6,253.2,196.1z M197,272.8c2.8,0,4.6-0.2,6.4,0c5.2,0.8,8.4-1.4,11.6-5.5c11.9-15.6,24.3-30.8,36.5-46.1
	c7.3-9.2,5.3-15.6-6-18.3c-21.4-5.1-42.9-9.9-64.4-14.8c-17.3-4-31.3,1.5-43,14.3c-2.4,2.6-3.2,5.2-2.3,8.9
	c2.9,12.3-0.6,23.1-9.8,31.7c-3.8,3.6-8.8,5.9-13.1,8.7c33.5,21.1,34,21.3,69.9,21.1c0.2,0,0.3,0,0.5,0c2.8,0.5,4.5-0.8,6-3.1
	c9.1-13.9,18.3-27.7,27.5-41.6c0.7-1,1.1-2.2,1.9-3.6c-16.2-2.9-31.8-5.8-47.4-8.6c-3.1-0.6-6.4-1.1-5.8-5.1
	c0.7-4.3,4.2-3.4,7.1-2.9c17,3,33.9,6,50.9,9c7.2,1.3,8.2,3.5,4.1,9.6C217.6,241.6,207.6,256.7,197,272.8z M194.4,454.1
	c39.4,0,78.6,0,117.6,0c0-15.4,0-30.4,0-45.4c-39.4,0-78.4,0-117.6,0C194.4,424,194.4,439,194.4,454.1z M356.5,272.3
	c0.7,0.2,1,0.4,1.3,0.4c36.7,0,73.4,0.1,110.2,0c5.9,0,10.1-4.3,10.3-10c0.3-6.2-3.3-10.3-9.6-11.1c-3.1-0.4-6.3-0.6-9.4-0.9
	c-21.7-1.9-43.3-3.8-65-5.6c-12.5-1.1-25-2.1-37.8-3.1C356.5,252.3,356.5,262.2,356.5,272.3z M356.5,211.9c1.1-0.1,1.6,0,2.1-0.2
	c35.8-10.9,71.6-21.8,107.3-32.7c6.2-1.9,9.3-6.6,8-11.8c-1.4-5.6-6.2-8.2-12.9-7c-24.6,4.3-49.3,8.5-73.9,12.7
	c-10.2,1.8-20.4,3.6-30.7,5.4C356.5,189.8,356.5,200.7,356.5,211.9z M133,273.2c0.1-0.4,0.2-0.8,0.3-1.2
	c-16.8-8.8-33.4-18.1-50.6-26.3c-11-5.2-22.6-9.3-34.2-13c-7.9-2.5-12.2,0.5-14.5,8.4c-3.1,10.6-2.2,21.2-0.5,32.1
	C66.8,273.2,99.9,273.2,133,273.2z M261.3,37.9c0,14.2,11.1,25.5,25.1,25.4c13.6-0.1,24.8-11.4,25-25.2
	c0.2-13.9-11.4-25.7-25.1-25.7C272.4,12.3,261.3,23.6,261.3,37.9z M103.6,243.9c13.8,0,25.2-11.8,25-25.7
	c-0.2-13.8-11.6-25.2-25.1-25.3c-13.8-0.1-25,11.4-25,25.6C78.6,232.8,89.6,244,103.6,243.9z M280.2,183.1c-0.2-0.7-0.2-1.1-0.4-1.3
	c-15.4-12.9-30.8-25.8-46.3-38.5c-0.9-0.7-2.8-0.9-3.9-0.5c-5.5,1.7-10.9,3.7-17,5.8c1.6,1.5,2.7,2.7,4,3.6
	c15.4,10.6,30.9,21.2,46.4,31.7c1.1,0.8,2.8,1.4,4.1,1.3C271.3,184.7,275.7,183.8,280.2,183.1z M169,408.6c0,15.5,0,30.5,0,45.5
	c5.7,0,11.1,0,16.5,0c0-15.3,0-30.4,0-45.5C179.8,408.6,174.6,408.6,169,408.6z M337.6,408.9c-6,0-11.5,0-16.8,0
	c0,15.4,0,30.4,0,45.3c5.8,0,11.2,0,16.8,0C337.6,438.9,337.6,424,337.6,408.9z M160.3,454.3c0-5.6,0-10.7,0-15.8
	c-8.7,0-17.1-0.6-25.5,0.2c-7.5,0.7-13.4,7.7-14.7,15.6C133.4,454.3,146.6,454.3,160.3,454.3z M387,454.2c-2.1-7.9-6.3-13.7-13.6-15
	c-8.8-1.5-17.9-1.2-26.9-1.7c0,6.3,0,11.4,0,16.7C359.9,454.2,373.1,454.2,387,454.2z M338.5,154.8c7.7,3.3,15.4,6,22.5,10
	c9.6,5.4,18.4,0.4,27.6-0.8c-7.2-4.4-14.5-8.3-21.8-12.1c-14.4-7.5-14.4-7.5-27.5,2.1C339.1,154,339.1,154.2,338.5,154.8z
	 M320.5,141.9c-0.6,0.2-1.1,0.5-1.7,0.7c-1.1,11.4-2.2,22.8-3.4,34.5c12.7-2.2,24.7-4.3,36.8-6.4
	C338.7,164.1,323.9,159.8,320.5,141.9z M254,187.9c-7.8-5.3-14.4-9.9-21.6-14.8c-1.7,6.2-3.1,11.5-5,18.5
	C236.5,190.3,244.5,189.2,254,187.9z"/>
<path d="M176.8,311.5c-31.4,0-62.3,0-93.7,0c0,4.9,0,9.6,0,14.4c0,14.5,0,28.9,0,43.4c0,3.2,0.3,7.1-4.2,6.9c-3.9-0.1-4-3.7-4-6.8
	c0-19.1,0-38.2,0-57.9c-2-0.1-3.7-0.2-5.5-0.3c-13.1,0-26.3,0-39.4,0c-3.1,0-6.5,0-6.4-4.3c0.1-3.7,3.2-4,6.3-4
	c51.2,0,102.4,0,153.6,0c70.3,0,140.7,0,211,0c26.6,0,53.2,0,79.8,0c3.2,0,6.5,0.3,6.4,4.4c-0.1,3.8-3.4,4-6.3,4
	c-4.6,0-9.3,0-14.5,0c0,2.2,0,4,0,5.8c0,16.3,0,32.6,0,48.9c0,3.1-0.4,6-4.3,5.8c-3.7-0.1-3.7-3.1-3.7-5.8c0-17.9,0-35.9,0-54.2
	c-16.9,0-33.6,0-50.7,0c0,11.2,0,22.1,0,33.1c0,4.8,0.3,9.7-0.2,14.4c-0.2,1.7-2.5,3.1-3.8,4.6c-1.4-1.6-3.4-2.9-3.9-4.7
	c-0.7-2.3-0.2-4.9-0.2-7.4c0-13.3,0-26.6,0-40.1c-22.3,0-44.1,0-66.7,0c0,9.9,0,19.4,0,29c0,2.2,0.5,4.5-0.2,6.4
	c-0.6,1.7-2.4,3.1-3.6,4.6c-1.4-1.5-4-2.9-4.1-4.5c-0.6-4.9-0.2-10-0.2-14.9c0-6.8,0-13.5,0-20.5c-36.2,0-71.9,0-107.9,0
	c0,16.8,0,33.2,0,49.7c0,3.2-0.1,6.3,0,9.5c0.1,3-0.7,5.6-4.1,5.5c-3.4-0.1-3.9-2.8-3.9-5.8c0.1-17.6,0-35.2,0-52.9
	c0-1.8,0-3.6,0-5.9c-5.8,0-11.3,0-17.5,0c0,6,0,11.9,0,17.9c0,1.7,0.5,3.6-0.2,4.9c-1,1.9-2.8,3.4-4.2,5.1c-1.3-1.7-3.6-3.2-3.8-5
	c-0.5-5.8-0.2-11.6-0.2-17.4C176.8,315.3,176.8,313.5,176.8,311.5z"/>
</svg>
