<?xml version="1.0" encoding="utf-8"?>
<!-- Generator: Adobe Illustrator 27.9.0, SVG Export Plug-In . SVG Version: 6.00 Build 0)  -->
<svg version="1.1" id="Слой_1" xmlns="http://www.w3.org/2000/svg" xmlns:xlink="http://www.w3.org/1999/xlink" x="0px" y="0px"
	 viewBox="0 0 512 494.7" style="enable-background:new 0 0 512 494.7;" xml:space="preserve">
<path d="M261.6,332.6c-1-36.8-8.3-72.3-17.5-107.6c-6.3-24.1-12.5-48.3-17-72.9c-6.8-37.7-2.3-74.7,11.1-110.6
	c1.8-4.7,3.6-5.6,8.4-3.9c7.7,2.8,15.4,5.7,23.1,8.6c5.3,2,6.1,3.7,4.1,9c-8,21.8-12,44.3-11.3,67.4c0.8,24.2,6.3,47.6,12.6,70.8
	c7.7,28.4,15.6,56.7,19.9,85.8c4,27.1,4.9,54.2,2.8,81.5c-2.3,30.1-8.4,59.4-16.5,88.4c-2.2,7.9-3.6,8.7-11.4,6.3
	c-7-2-13.9-4.1-20.9-6.2c-5.7-1.7-6.4-3.3-5.1-9c4.1-18,8.9-35.9,11.9-54.1C258.7,368.6,259.7,350.5,261.6,332.6z M282.6,263.6
	c-2.9-12.3-5.6-23.9-8.4-36.1c-5.7,3.1-10.5,5.7-15.3,8.4c-0.7,0.4-1.5,1.9-1.3,2.6c2.1,9.8,4.4,19.6,6.7,29.7
	C270.5,266.6,276.3,265.2,282.6,263.6z M236,149.7c6.9-1.5,12.8-2.8,18.3-4.1c-0.7-9.7-1.3-18.6-1.9-27.5c-6.2,0-12.2,0-18.9,0
	C234.3,128.6,235.1,138.7,236,149.7z M237.7,159.3c2.2,10.1,4.3,19.5,6.5,29.1c6.6-1.4,12.4-2.6,18.3-3.9
	c-2.2-9.8-4.2-19.1-6.4-28.9C250.1,156.7,244.3,157.9,237.7,159.3z M266,277.8c1.1,9.1,2.2,17.7,3.3,26.3c6.4,0,12.5,0,19,0
	c-1.3-10.3-2.6-20.3-4-30.8C278,274.9,272.2,276.3,266,277.8z M237.6,77c-1.3,10.7-2.5,20.7-3.8,31c6.9,0,12.9,0,18.8,0
	c1-8.3,2-16.3,3-24.5C249.9,81.5,244.3,79.5,237.6,77z M246.7,197.8c2.7,10.1,5.2,19.4,7.9,29.2c5.3-2.9,10.1-5.4,14.7-8.1
	c0.9-0.5,1.8-2.1,1.6-2.8c-1.8-7.4-3.9-14.8-5.8-22.1C258.7,195.3,253,196.5,246.7,197.8z M288.7,314.2c-6.4,0-12.5,0-18.4,0
	c0,8.9,0,17.5,0,26.2c6.3,0.5,12.2,0.9,18.4,1.3C288.7,332.3,288.7,323.3,288.7,314.2z M280.4,412.5c1.6-8.9,3.2-17.2,4.7-26
	c-6.2-1.8-12.1-3.6-18.3-5.4c-1.6,8.9-3,17.1-4.5,25.6C268.2,408.6,273.9,410.4,280.4,412.5z M254.1,440.8c6.2,1.8,11.9,3.5,18,5.3
	c1.9-7.4,3.8-14.3,5.5-21.4c0.2-0.9-0.6-2.9-1.5-3.2c-5.1-1.9-10.3-3.4-15.7-5.1C258.2,424.7,256.2,432.5,254.1,440.8z M286.6,376.7
	c0.7-8.6,1.4-16.6,2.1-25.1c-6.5-0.5-12.4-1-18.6-1.5c-0.6,6.5-1.4,12.6-1.7,18.7c-0.1,1,1.4,2.7,2.4,3.1
	C275.7,373.6,280.7,375,286.6,376.7z M263.6,54.5c-5.9-2.2-11.4-4.2-17.5-6.5c-2,6.7-4,12.9-6,19.6c6.2,2.2,11.9,4.2,17.7,6.3
	C259.8,67.1,261.6,61.1,263.6,54.5z"/>
<path d="M348.4,129.9c-16.1-7.6-31.4-14.8-46.7-22c-7.1-3.4-8-5-7.4-12.8c0.9-11.6,5.9-21.2,13.7-29.6c1.2-1.3,2.4-2.5,3.6-3.8
	c-4.4-3.5-8.8-6.8-12.9-10.4c-1.4-1.2-2.7-3.3-2.8-5.1c-0.2-12.3-0.1-24.7-0.1-37.4c3.1,0,6,0,9.5,0c0,10.1,0.3,20.2-0.1,30.3
	c-0.2,4.2,1.3,6.9,4.6,9c0.4,0.3,0.8,0.5,1.1,0.8c5.5,5.3,10.9,6.7,17.5,1.2c6.9-5.8,14.6-6.1,23.4-2.8
	c23.1,8.8,46.6,16.9,66.3,32.2c8.9,6.9,18.6,7.9,28.6,9.7c15.7,2.9,31.5,5.3,47.2,8c0.8,0.1,1.5,0.5,2.5,0.9c-0.5,3-1,5.9-1.6,9.3
	c-10.4-1.7-20.4-3.4-30.5-5.1c-12.5-2.1-24.9-4.2-37.4-6.4c-2.1-0.4-4.6-0.8-6.1-2.1C403.7,79,383.5,70.4,363,62.3
	c-6.2-2.4-12.4-4.7-18.8-6.7c-2.1-0.7-4.6-0.1-6.9-0.1c-0.1,0.6-0.2,1.1-0.2,1.7c11.8,5.5,23.6,11.1,36,16.9
	c-1.4,2.9-2.7,5.7-4.1,8.8c-12.4-5.8-24.4-11.4-36.4-17c-6.8-3.2-6.8-3.2-13,2.4c13.1,5.9,25.9,11.8,39.3,17.8
	c-1.3,3-2.5,5.8-3.8,8.9c-14.4-6.5-28.5-12.8-43-19.3c-1.8,2.8-3.5,5.5-5.6,8.8c14.8,6.3,29.3,12.4,44.1,18.7
	c-1.2,3-2.3,5.7-3.6,8.9c-14.2-6-28.3-11.9-42.3-17.8c-1.5,3.3,0.1,4.5,2.6,5.6c18.5,8.6,37,17.3,55.4,26c1.5,0.7,3.2,1.6,4.3,2.8
	c2.6,3,0.7,6.8-4,8c-6.6,1.7-13.2,3.1-19.8,4.9c-1.4,0.4-2.5,1.8-3.7,2.7c1.4,0.4,2.8,1.1,4.2,1.1c6.8,0.1,13.6-0.4,20.4,0
	c13,0.6,24.8-2.2,34.8-11.1c1.4-1.2,4.2-2.1,5.9-1.6c30.6,9.6,61.1,19.5,92.1,29.5c-1,3.1-1.9,6-2.9,9.3c-15-4.8-29.5-9.5-44.1-14.2
	c-14.1-4.6-28.2-9.2-42.4-13.5c-1.8-0.6-4.7-0.1-6.2,1c-9.6,6.9-20.2,10.3-32,10.2c-9.2-0.1-18.4,0.1-27.5,0.3
	c-5.9,0.1-10.8-3.5-11.8-8.9c-1.1-6.1,1.5-11.2,7.3-13.3C340.6,131.9,344.1,131.1,348.4,129.9z"/>
<path d="M210.3,324c-5.8,14.2-11.5,28.3-17.5,42.9c-3-1.2-5.7-2.3-9-3.5c6-14.9,11.9-29.5,18.1-44.9c-3.6-0.9-6.8-1.7-10.4-2.5
	c-5.6,14.8-11.1,29.2-16.8,44.1c-3-1.1-5.7-2-9.1-3.2c5.1-13.7,10.1-27,15.2-40.5c-7.6-0.5-8-0.2-10.3,6.1
	c-4.2,11.6-8.5,23.2-12.7,34.7c-0.5,1.4-1.1,2.9-1.8,4.6c-3.1-1.1-5.9-2.2-9-3.3c4.6-12.7,9.1-25.1,13.5-37.5c-0.3-0.3-0.7-0.7-1-1
	c-1.6,1.2-3.8,2-4.6,3.6c-11.3,22.8-22.6,45.9-26,71.4c-1.4,10.3-5.5,18.4-11.3,26.4c-15.1,20.9-29.9,42.1-44.8,63.2
	c-0.8,1.2-1.7,2.3-2.8,3.8c-2.6-1.8-5.2-3.6-7.9-5.5c12.2-17.3,24.2-34.2,36.2-51.1c5.8-8.1,11.6-16.2,17.3-24.4
	c1.1-1.6,2.1-3.6,2.3-5.5c2.6-24.1,11.4-46.2,21.3-68c2.5-5.6,5.3-11.2,8.1-16.6c0.8-1.6,2.2-3.4,3.7-4c16.1-6.1,32.5-9.5,49.7-4.9
	c7.3,2,13.6,5.7,19.1,11.1c3.4,3.3,4.1,6.6,2.4,11.1c-5.7,15.1-11,30.3-16.5,45.5c-0.4,1.1-0.8,2.3-1.5,4.4c3.6-2.1,6.2-3.8,8.9-5.3
	c5.7-3.1,12.3-1.6,15.6,3.4c3.5,5.3,2.3,11.3-2.6,15.8c-5.3,4.8-10.5,9.6-15.3,14.8c-9.5,10.4-20.5,17.7-34.9,19.2
	c-1.4,0.1-3.1,2-3.9,3.4c-9.5,17.2-18.8,34.4-28.2,51.7c-0.8,1.5-1.7,3-2.6,4.6c-2.9-1.6-5.5-3-8.4-4.6c6.1-11.2,12.1-22.2,18-33.1
	c4.9-9,9.6-18.2,14.9-27c1.2-2.1,4.2-4.1,6.6-4.3c10.9-0.9,20.1-5.1,27.9-12.8c6.4-6.4,12.9-12.6,19.2-19.1c0.7-0.7,0.7-2.1,1.1-3.1
	c-1.1,0.1-2.5-0.3-3.4,0.3c-5.9,3.4-11.7,7-17.5,10.5c-2.5,1.5-5,3.1-7.8,0.7s-1.6-5.2-0.6-7.8c6.9-19.2,13.8-38.3,20.8-57.5
	C212.8,327.7,214,325.5,210.3,324z"/>
<path d="M499.2,324.5c-2.5,1.9-4.8,3.6-7.6,5.7c-33.8-44.9-67.4-89.7-101.8-135.5c-4.3,16.3-8.5,31.3-12.3,46.5
	c-6.1,24.9-11,50.1-11.9,75.8c-0.5,14.4-0.2,28.9,0.9,43.2c1.9,24.6,4.5,49.2,7.2,73.7c1.8,16.2,4.4,32.3,6.6,48.4
	c0.1,0.9,0.1,1.8,0.2,3.1c-3.1,0.5-6,0.9-9.3,1.4c-1.7-11.9-3.6-23.4-5.1-35c-2.6-21.2-5-42.4-7.4-63.7
	c-5.9-51.1-3.8-101.8,9.7-151.7c4.7-17.2,9.7-34.4,14.8-51.4c0.6-2,2.5-4.6,4.2-4.9c1.7-0.3,4.5,1.3,5.7,3
	c35,46.4,69.9,92.9,104.9,139.4C498.4,323.1,498.7,323.6,499.2,324.5z"/>
<path d="M208.1,8.7c3.2,0,6,0,9.2,0c0.1,1.3,0.3,2.7,0.3,4.1c0,10.3-0.2,20.6,0.1,30.9c0.1,3.9-1.3,6.5-4.2,9
	c-14.8,13-32.7,18.8-51.5,22.4c-11,2.1-22,4.2-33,6.7c-11.2,2.6-20,8.9-26.8,18.3c-19.4,26.4-34.7,55.2-50,84
	c-9.6,18.2-18.6,36.7-27.9,55c-0.6,1.3-1.4,2.5-2.3,4c-2.8-1.3-5.5-2.5-8.3-3.8c0.5-1.3,0.8-2.4,1.2-3.3
	c20.1-40.9,40.6-81.6,64.9-120.2c6.1-9.6,12.9-18.8,20-27.7c8.7-10.9,21.4-14.7,34.4-17.5c14.8-3.3,29.9-5.4,44.4-9.8
	c9.2-2.8,17.4-8.6,26-13.2c2.7-1.5,3.6-3.9,3.5-7.1C208,29.8,208.1,19.4,208.1,8.7z"/>
<path d="M156,299.4c-3.4,0.4-6.1,0.8-9.3,1.2c-4.4-35.9-12.6-70.4-23.5-105.3c-34.1,45.3-67.6,89.9-101.5,134.9
	c-2.6-2-5.1-3.8-7.8-5.8c14.3-19,28.4-37.7,42.4-56.4c21-28,42-56,63.2-83.8c1.4-1.9,4.2-3.9,6.3-3.8c1.6,0.1,3.7,3.2,4.4,5.3
	c11.5,35.2,20.4,71,25.4,107.8C155.8,295.2,155.8,297.1,156,299.4z"/>
<path d="M456.3,174.3c2.8-1.5,5.4-2.9,8.6-4.6c11.8,23.2,23.4,46,35.2,69.2c-3.2,1.6-5.9,2.8-8.7,4.2
	C479.6,220.2,468.1,197.5,456.3,174.3z"/>
</svg>
