<?xml version="1.0" encoding="utf-8"?>
<!-- Generator: Adobe Illustrator 27.9.0, SVG Export Plug-In . SVG Version: 6.00 Build 0)  -->
<svg version="1.1" id="Слой_1" fill="none" xmlns="http://www.w3.org/2000/svg" xmlns:xlink="http://www.w3.org/1999/xlink" x="0px" y="0px"
	 viewBox="0 0 512 494.7" style="enable-background:new 0 0 512 494.7;" xml:space="preserve">

<path fill="white" class="st0" d="M0,226.5c0.7-2.5,1.5-5,2.1-7.6c5.2-19.6,22.3-35.2,40.7-37.1c23.7-2.4,42.9,7.6,52.9,27.5
	c0.6,1.3,1.3,2.6,2.2,4.3c1.6-1.3,2.8-2.3,4.1-3.3c7.2-6.1,15.5-9.6,25-9.6c2.8,0,5.7-0.3,8.5,0c5.1,0.5,8.4-0.5,10.3-6.3
	c2.6-7.5,8.7-12.4,15.8-15.9c19.4-9.5,38.8-19,58.1-28.8c2.8-1.4,5.4-3.9,7-6.5c8.1-13.2,15.8-26.6,23.6-40c0.8-1.4,1.5-2.8,2.9-5.2
	c-20,5.4-37.4,2.7-52.1-10.8c-9.4-8.7-14.8-19.6-15.7-32.4C183.1,25.1,205,1.2,233.9,0c16.6-0.7,30.5,5.9,41,19
	c10.5,13,12.8,28.1,9.7,44.3c7.5,0.5,14.7,0.7,21.7,1.6c14.1,1.8,26.9,7,38.8,14.8c4,2.6,5.1,6.6,2.8,9.7c-2.7,3.6-6.1,3.7-9.6,1.4
	c-12.6-8.3-26.5-12.7-41.6-14.1c-9.6-0.9-16.8,1.9-21.8,10.5c-12.6,21.8-25.3,43.4-38.2,64.9c-2,3.3-5.4,6.4-8.8,8.2
	c-20,10.2-40.1,20-60.3,29.9c-6.6,3.2-11,8.2-11.7,15.6c-1.4,13.5,12.4,22.7,25.2,16.6c14.4-6.8,28.7-14.1,43-21.1
	c8.6-4.3,17.2-8.7,26-12.7c5.8-2.7,10.1-6.7,13.3-12.3c8.4-14.7,17.1-29.3,25.8-43.9c3.8-6.5,6.4-7.1,13-3.6
	c17.2,9.2,26.9,29.3,23.4,48.4c-1.3,6.9-2.3,13.8-3.1,20.7c-0.1,1,1.3,3,2.3,3.4c9,2.8,18.5,4.4,27.1,8.1c8.4,3.6,16,9.3,24.4,14.4
	c0.1-1.4,0.3-2.9,0.3-4.4c0-19.5,0-39,0-58.5c0-17.1-5.1-32.7-14.6-46.9c-0.8-1.2-1.8-2.4-2.5-3.7c-1.7-3.3-1.7-6.5,1.4-8.9
	c3.4-2.6,7.1-1.9,9.1,1.5c5,8.4,10.1,16.8,14,25.8c4.7,10.8,6,22.4,6.1,34.2c0.1,19,0.1,38-0.1,57c0,4,1.3,5.1,5.1,5
	c21.5-0.2,43,0.4,64.5-0.2c29-0.8,50,22,51.8,44.2c0.1,1,0.6,1.9,1,2.8c0,21.7,0,43.3,0,65c-2.5,3.8-5.9,5.1-10.5,4.9
	c-8.1-0.3-16.2-0.1-24.7-0.1c0,2.5,0,4.3,0,6.1c0,8.7,0.1,17.3,0,26c-0.1,5.1-2.8,8.1-7,7.9c-4-0.1-6.4-3-6.5-7.9
	c-0.1-5.8,0-11.7,0-17.5c0-4.8,0-9.5,0-14.3c-11.9,0-23,0-34,0c0,46.7,0,93.1,0,139.4c11.5,0,22.6,0,34,0c0-11.9,0-23.4,0-34.9
	c0-5.9,2.5-9.3,6.6-9.4c4.2-0.1,6.9,3.4,6.9,9.2c0,13.2,0,26.3,0,39.5c0,7-2.2,9.1-9.3,9.1c-14,0-28,0-42,0
	c-8.5,0-10.3-1.7-10.3-10.2c0-45.7,0-91.3,0-137c0-1.9,0-3.8,0-6.1c-12.3,0-23.8-0.1-35.3,0.1c-1.1,0-2.9,1.9-3.2,3.2
	c-2.5,11.7-4.8,23.4-7,35.2c-1,5.4-3.1,10.9-2.3,16.1c2.9,20.9,6.7,41.6,10.2,62.5c2.8,17-8.5,33.3-24.9,35.9
	c-17.5,2.7-32.9-8.8-35.6-26.3c-3.1-19.7-6.3-39.4-9.7-59c-1.9-10.6-2.8-21,0.4-31.5c0.8-2.7,1-5.7,1.4-8.5
	c-7.2,5.5-13.5,11.4-19.3,17.7c-1.8,1.9-3.1,5.1-3.1,7.7c-0.2,22.7-0.1,45.3-0.2,68c-0.1,17.4-12.3,31.3-28,32
	c-18.8,0.9-33.4-12.8-33.4-31.8c-0.1-28.3,0-56.7,0-85c0-1.6,0.3-3.3,0.5-4.9c0.9-9.5,7.5-15.7,12.7-22.7c1.9-2.6,3.7-5.2,6.2-8.6
	c-2.9,0-4.3,0-5.8,0c-29.7,0-59.3,0.1-89-0.1c-4.1,0-5.8,1.4-7.3,5c-5.8,14-12,27.8-18,41.6c-3.9,9-10.6,14.8-20.1,17.1
	c-2.4,0.6-4.8,0.7-7.7,1c0,2.3,0,4.2,0,6.2c0,24,0,48,0,72c0,8.6-1.7,10.4-10,10.4c-13.8,0-27.7,0-41.5,0c-8.1,0-9.9-1.8-9.9-10
	c0-45.5,0-91,0-136.5c0-2.1,0-4.2,0-6.7c-8.7,0-16.7-0.2-24.7,0.1c-4.6,0.2-8.1-1-10.6-4.8c0-21,0-42,0-63c3-7.1,10-3.8,15.1-5.2
	c0-0.9,0.1-1.3-0.1-1.5c-0.6-0.8-1.3-1.5-1.9-2.3c-5.7-6.5-9.4-14-11.4-22.4c-0.5-1.9-1.1-3.7-1.6-5.6C0,233.2,0,229.9,0,226.5z
	 M497.5,268.6c-0.4-2.2-0.6-3.5-0.9-4.7c-4.8-15.8-19.2-26.3-36.7-26.3c-28.2-0.1-56.3,0.1-84.5-0.2c-3.1,0-6.9-1.5-9.3-3.5
	c-15.9-13.5-34.3-20.2-55-20.3c-25.7-0.2-51.3-0.1-77,0c-3.2,0-6.6,0.8-9.5,2.2c-12.9,6.1-25.6,12.7-38.5,18.8
	c-15.1,7.1-33,1.6-39.6-13.1c-3.2-7.1-7-9.1-13.8-8c-0.8,0.1-1.7,0-2.5,0c-17.7,0.2-29.4,11.8-29.4,29.5c0,28.8,0.1,57.7-0.1,86.5
	c0,4.3-1.1,8.9-2.7,12.9c-3.9,9.9-8.5,19.5-12.5,29.3c-3.8,9.4,1.2,18.6,10.9,20.6c6.4,1.3,12.8-2.2,15.9-9.3
	c6.7-15.2,13.4-30.4,19.9-45.7c1.2-2.8,1.8-6.1,1.9-9.1c0.2-17,0.1-34,0.1-51c0-6.9,1.6-8.4,8.6-8.5c1.2,0,2.3,0,3.5,0
	c114.3,0,228.6,0,343-0.1C491.6,268.6,494.1,268.6,497.5,268.6z M498,281.8c-1.9-0.1-3.2-0.3-4.5-0.3c-113.8,0-227.6,0-341.4-0.2
	c-4.3,0-5.4,1.5-5.3,5.5c0.2,11.8,0.3,23.7,0,35.5c-0.1,4.8,1.5,5.8,6,5.8C266,328,379.3,328,492.6,328c1.8,0,3.5-0.2,5.4-0.3
	C498,312.2,498,297.2,498,281.8z M315.1,342.2c-1.7-0.5-2.1-0.8-2.6-0.8c-16.2,0-32.3-0.1-48.5,0c-1.6,0-3.6,1.5-4.7,2.9
	c-5.5,6.9-11.1,13.7-16,21c-2.4,3.5-4.4,8.1-4.5,12.2c-0.4,28.3-0.2,56.6-0.2,84.9c0,10.9,7.8,19.2,17.5,19.1c9.8-0.1,17-8.2,17-19
	c0-23.8,0.1-47.6-0.1-71.4c0-4.7,1.3-8.2,4.7-11.5c11.3-10.9,22.3-22,33.4-33C312.5,345.5,313.5,344.1,315.1,342.2z M363.7,341.3
	c-7.3,0-13.5,0.5-19.6-0.1c-6.4-0.6-11.6,1.2-14.9,6.5c-1.9,3.1-3.2,6.7-4.2,10.3c-1.3,4.8-2,9.7-2.9,14.7
	c-1.8,10.3-4.7,20.4-2.3,31c1.8,7.7,2.7,15.7,4,23.6c2.3,13.8,4.3,27.6,7.1,41.3c1.9,9.2,11.2,14.3,20.4,12.2
	c8.9-2,14.6-10.4,13.2-19.5c-3.3-20.5-7.7-40.9-9.6-61.5c-1-10.6,2.2-21.6,3.9-32.4C360,358.9,361.9,350.5,363.7,341.3z M82.6,481.4
	c0.3-1,0.5-1.5,0.6-1.9c0-25.3,0.1-50.6,0-75.9c0-1.3-0.9-2.8-1.8-3.7c-10.8-10.4-13.1-21.5-7.2-35.3c2.5-6,5.2-11.9,7.7-17.8
	c0.7-1.6,1-3.2,1.6-5.1c-11.9,0-23.2,0-34.3,0c0,46.8,0,93.1,0,139.7C60.5,481.4,71.4,481.4,82.6,481.4z M235.7,87.8
	c20.2,0.1,37.3-16.9,37.3-37.1c0.1-20.1-17-37.2-37.2-37.3c-19.9-0.1-37,16.8-37.2,36.7C198.6,70.8,215.2,87.8,235.7,87.8z
	 M87.4,231.4c0.1-20.7-16.3-37.1-36.8-37.2c-20.1,0-36.4,16.4-37.1,36c-0.6,17.5,12.6,38,37,38.2C74,268.5,88.2,249.1,87.4,231.4z
	 M87.5,327.7c0-14.7,0.1-29.2-0.2-43.6c0-0.9-2.3-2.6-3.6-2.6c-22.1-0.2-44.3-0.1-66.4-0.2c-2.8,0-3.8,1.1-3.7,3.8
	c0.1,6.7,0,13.3,0,20c0,7.4,0,14.9,0,22.6C38.5,327.7,62.7,327.7,87.5,327.7z M258.1,199.4c0.2,0.4,0.4,0.8,0.6,1.3
	c13.4,0,26.9,0,40.3,0c9,0,9.4,0.1,10.6-8.8c1.3-9.5,2.8-19.1,2.3-28.6c-0.5-8.8-5.6-15.9-13.6-21c-4.5,7.6-8.4,15-13,21.9
	C277.2,176.6,272.9,192,258.1,199.4z"/>
<path class="st0" d="M463.3,408.8c0-1.8-0.2-3.7,0.1-5.5c0.6-3.5,2.5-5.7,6.3-5.9c3.7-0.2,6.3,1.8,6.8,5.3c0.5,4.2,0.5,8.6,0,12.9
	c-0.4,3.5-3.1,5.7-6.6,5.6c-3.7-0.1-6.1-2.6-6.5-6.3C463,412.9,463.2,410.8,463.3,408.8C463.3,408.8,463.3,408.8,463.3,408.8z"/>
</svg>
