<?xml version="1.0" encoding="utf-8"?>
<!-- Generator: Adobe Illustrator 27.9.0, SVG Export Plug-In . SVG Version: 6.00 Build 0)  -->
<svg version="1.1" id="Слой_1" xmlns="http://www.w3.org/2000/svg" xmlns:xlink="http://www.w3.org/1999/xlink" x="0px" y="0px"
	 viewBox="0 0 512 494.7" style="enable-background:new 0 0 512 494.7;" xml:space="preserve">

<path fill="white" class="st0" d="M464.4,46.8c-18.6-18.6-47.6-21-69-5.8L193.3,185.2c-15.7,11.2-26.7,27.7-31.2,46.4l-58.5,71.7
	c-20.6,25.2-18.7,61.5,4.2,84.6l0.9,0.9l-14.5,14.5l-36.9-37c-3.5-3.5-9.2-3.5-12.7,0c-3.5,3.5-3.5,9.2,0,12.7l43.3,43.4l0,0
	c0,0,0,0,0,0c0,0,0,0,0,0c0,0,0,0,0,0c0,0,0,0,0,0c0,0,0,0,0,0l43.7,43.8c1.8,1.8,4.1,2.6,6.4,2.6c2.3,0,4.6-0.9,6.4-2.6
	c3.5-3.5,3.5-9.2,0-12.7L107,416.1l14.5-14.5l1.3,1.3c22.7,22.7,58.8,24.9,84,4.9l74.1-58.6c19-5,35.6-16.4,47-32.5l142.4-201.2
	C485.3,94.2,482.9,65.3,464.4,46.8z M195.5,393.7c-18,14.2-43.8,12.7-60-3.5l-7.7-7.7c0,0,0,0,0,0l-7.2-7.3
	c-16.4-16.5-17.7-42.5-3-60.5l53.6-65.7l92,91.1L195.5,393.7z M455.5,105.1L313.1,306.3c-8.3,11.7-20.1,20.3-33.7,24.6l-98.9-98
	c3.8-13.3,12-24.9,23.3-33L405.9,55.7c14.2-10.1,33.5-8.5,45.8,3.8C463.9,71.8,465.5,90.9,455.5,105.1z"/>
<path fill="white" class="st0" d="M338,459.1c-3.7,0-7.2-2.3-8.5-6c-1.7-4.7,0.8-9.8,5.5-11.5c69.1-24.5,103.7-59.6,123.3-125.2
	c1.4-4.8,6.4-7.5,11.2-6c4.8,1.4,7.5,6.4,6,11.2c-11.1,36.9-26.4,64.3-48.2,86.2c-21.2,21.2-48.6,37.4-86.3,50.7
	C340,458.9,339,459.1,338,459.1z"/>
<path fill="white" class="st0" d="M330.7,425.6c-3.6,0-7-2.1-8.4-5.7c-1.8-4.6,0.4-9.9,5-11.7c51.9-20.7,88.8-58.1,98.7-100.2
	c1.1-4.8,6-7.9,10.8-6.7c4.8,1.1,7.8,6,6.7,10.8c-5.9,25.3-19.5,48.4-40.2,68.8c-18.6,18.2-42.6,33.4-69.3,44.1
	C333,425.4,331.8,425.6,330.7,425.6z"/>
<path fill="white" class="st0" d="M318.7,393.3c-3.7,0-7.2-2.3-8.5-6c-1.6-4.7,0.8-9.8,5.5-11.5c44.2-15.4,69.3-40.7,76.8-77.5
	c1-4.9,5.7-8,10.6-7c4.9,1,8,5.7,7,10.6c-4.6,22.8-15.3,42.3-31.6,57.9c-14.3,13.7-33.5,24.8-57,33
	C320.7,393.2,319.7,393.3,318.7,393.3z"/>
<path fill="white" class="st0" d="M126.4,202.1c-1.2,0-2.4-0.2-3.6-0.8c-4.5-2-6.6-7.3-4.6-11.9c24-54.6,38.9-69.5,88.5-88.6
	c4.6-1.8,9.8,0.5,11.6,5.2c1.8,4.6-0.5,9.8-5.2,11.6c-44.8,17.2-56.5,29.1-78.5,79C133.1,200.1,129.8,202.1,126.4,202.1z"/>
<path fill="white" class="st0" d="M95.1,190.1c-1.1,0-2.2-0.2-3.2-0.6c-4.6-1.8-7-7-5.2-11.6c12.1-31.6,25.7-54.4,42.8-71.6
	c17.3-17.4,38.9-29.9,67.9-39.1c4.7-1.5,9.8,1.1,11.3,5.8c1.5,4.7-1.1,9.8-5.8,11.3c-51.3,16.3-77.3,42.5-99.3,99.9
	C102.1,187.9,98.7,190.1,95.1,190.1z"/>
<path fill="white" class="st0" d="M60.8,181.5c-1,0-1.9-0.2-2.9-0.5c-4.7-1.6-7.2-6.7-5.6-11.4c13.3-39.1,29.8-67.3,52-88.5
	C125.2,61.2,152,46.5,188.8,35c4.7-1.5,9.8,1.2,11.3,5.9c1.5,4.7-1.2,9.8-5.9,11.3C125.6,73.6,93,105.9,69.3,175.4
	C68.1,179.1,64.6,181.5,60.8,181.5z"/>
</svg>
