<?xml version="1.0" encoding="utf-8"?>
<!-- Generator: Adobe Illustrator 27.9.0, SVG Export Plug-In . SVG Version: 6.00 Build 0)  -->
<svg version="1.1" id="Слой_1" xmlns="http://www.w3.org/2000/svg" xmlns:xlink="http://www.w3.org/1999/xlink" x="0px" y="0px"
	 viewBox="0 0 512 494.7" style="enable-background:new 0 0 512 494.7;" xml:space="preserve">
<path fill="white" d="M0,228.6c0.6-1.9,1.3-3.7,1.9-5.6c5.2-15.3,15.8-20.4,32.9-15.8c10.2,2.7,18.3,8.5,24.5,16.9c2.9,3.9,5.7,7.8,8.6,11.6
	c0.4,0,0.7,0,1.1,0c0-1.7,0-3.4,0-5c0-38.3,0-76.5,0-114.8c0-14,8.6-24.7,22.1-26.4c5.2-0.7,10.7,0.9,16.7,1.5c0-1.9,0-4.6,0-7.4
	c0.3-15,12-27,26.7-27.5c14.6-0.5,26.9,10.3,28.3,25.2c0.4,3.8,0.1,7.6,0.1,12.2c12.3-5.5,23.2-5.1,32.8,3.5
	c9.7,8.6,8.9,20.4,8.6,30.6c7.1-0.6,13.8-2.3,20.2-1.6c13.2,1.5,22.8,12.8,22.9,26c0.1,35.3,0.7,70.5-0.4,105.8
	c-0.5,15.1-4.2,30.2-7.7,45c-5.4,23.3-8.1,46.8-7.1,70.6c0.2,4,0.2,8-0.1,12c-0.3,3.8-2.4,6.2-6.5,6.1c-3.8-0.1-6-2.5-6-6
	c0-13.8-1.1-27.8,0.6-41.4c2.8-21.7,7.9-43,11.5-64.6c1.7-10.3,3.1-20.8,3.2-31.2c0.4-31.1,0.1-62.2,0.2-93.3
	c0-7.3-2.6-13.1-9.5-16.1c-10.2-4.4-21.3,2.8-21.3,14c-0.1,23.1,0,46.2-0.1,69.4c0,1.5,0.1,3-0.1,4.5c-0.6,3.5-2.5,5.8-6.4,5.7
	c-3.8-0.1-5.6-2.4-6.1-5.9c-0.2-1.5-0.1-3-0.1-4.5c0-34.9,0-69.9,0-104.8c0-10.2-7.6-16.5-17.4-14.6c-5.4,1-9.9,5.6-10.7,11.1
	c-0.3,2.3-0.4,4.6-0.4,7c0,33.4,0,66.9,0,100.3c0,6.9-1.9,10.1-6.2,10.2c-4.2,0.1-6.3-3.1-6.3-9.9c0-45.6,0-91.1,0-136.7
	c0-7.6-3.8-13-10.5-15.2c-6-2-13-0.2-16.4,5.2c-2,3.2-3.1,7.4-3.1,11.1c-0.2,44.4-0.1,88.8-0.1,133.2c0,1.8,0.2,3.7-0.2,5.5
	c-0.7,3.2-2.8,5.3-6.3,5.1c-3.6-0.1-5.4-2.3-6-5.6c-0.3-1.5-0.1-3-0.1-4.5c0-34.6,0-69.2,0-103.8c0-9-5.8-14.6-14.3-14
	c-6.2,0.4-11.2,5.3-11.7,11.5c-0.1,1.8-0.1,3.7-0.1,5.5c0,44.2,0,88.5,0,132.7c0,1.3,0.5,2.9-0.1,3.9c-1.3,2.4-2.7,5.7-4.8,6.5
	c-1.8,0.7-5.5-1-7-2.8c-6.9-8.7-13.4-17.8-19.9-26.8c-7-9.6-16.2-14.7-28.2-13.7c-2.1,0.2-4.7,1.7-6,3.5c-4.5,6.4-3.7,16.5,1,22.7
	c16.5,22.1,33,44.2,49.4,66.4c6.8,9.3,9.7,19.7,9.7,31.3c-0.2,31.9-0.1,63.9-0.1,95.8c0,1.8,0,3.6,0,5.7c83.6,0,166.9,0,250.8,0
	c0-1.8,0-3.6,0-5.3c0-31.9-0.1-63.9,0.1-95.8c0.1-9.3-2.5-17.5-7.6-25.3c-16.7-25.4-33.1-51-49.9-76.3c-5.5-8.4-7.6-16.6-2.1-25.5
	c5.8-9.3,14.9-11.1,24.9-9.9c13,1.6,23.5,7.8,31.1,18.6c2.7,3.8,5.5,7.5,9.3,11.2c0-1.7,0-3.3,0-5c0-38.4,0-76.8,0-115.3
	c0-13.6,8.6-24.2,22-26c5.3-0.7,11,0.9,16.9,1.5c-0.6-10.1,0.5-20.3,9.3-27.9c5.1-4.4,11-6.9,17.7-7c9.6-0.1,17.3,3.9,23.1,11.6
	c5.8,7.6,5,16.5,5.1,25.8c12-5.5,22.8-5.1,32.5,3.4c9.8,8.6,8.9,20.4,8.8,30.5c7.1-0.6,14-2.2,20.6-1.4c13,1.5,22.5,13.3,22.5,26.4
	c0.1,33.9,0.8,67.9-0.4,101.8c-0.6,16.1-4,32.2-7.7,48c-5.9,25.1-8,50.4-7.1,76.1c0.1,2.5,0.2,5-0.2,7.5c-0.5,3.5-2.6,5.8-6.4,5.7
	c-3.8-0.1-6-2.4-6-6c0-14.3-1.1-28.8,0.7-42.8c2.8-21.3,7.8-42.4,11.5-63.6c1.6-9.5,2.8-19.1,3-28.7c0.5-19.8,0.2-39.6,0.2-59.4
	c0-0.8-0.2-1.6-0.3-2.7c-10,0-19.9,0-30.5,0c0,5.9,0,11.7,0,17.4c0,6.7,0.1,13.3-0.1,20c-0.1,4.6-2.9,7.3-6.7,6.9
	c-4.3-0.4-5.8-3.2-5.8-7.2c0-6.8,0-13.6,0-20.6c-9.7,0-18.9,0-28.8,0c0,7.1,0.1,13.8,0,20.6c-0.1,3.8-2.6,5.9-6.2,5.8
	c-3.5-0.1-5.8-2.2-6-6.1c0-1.2,0-2.3,0-3.5c0-15.1,0-30.3,0-45.4c0-1.6,0-3.3,0-5.2c-10.1,0-19.8,0-30.2,0c0,2.9,0,5.6,0,8.4
	c0,13.5,0,26.9,0,40.4c0,1.3,0.1,2.7-0.1,4c-0.7,3.7-2.7,6.1-6.8,5.8c-3.8-0.3-5.6-2.8-5.7-6.4c-0.1-6,0-11.9,0-18.3
	c-8.6,0-17,0-26.2,0c0,1.6,0,3.4,0,5.1c0,14.5-0.1,28.9,0,43.4c0,3.9-0.5,7.5-4.8,8.9c-4.1,1.3-6.4-1.5-8.5-4.5
	c-3.4-4.7-6.9-9.3-10.1-13.7c-7.3,7.3-14.4,14.4-21.7,21.8c9.6,14.7,19.4,30,29.5,45.2c6.6,9.9,9.7,20.5,9.7,32.4
	c-0.2,31.6-0.1,63.2-0.1,94.8c0,1.8,0,3.6,0,6.1c2.3,0,4.2,0,6.1,0c51.1,0,102.1,0,153.2,0c1.5,0,3-0.1,4.5,0
	c3.8,0.3,6.4,2.4,6.4,6.3c0,3.8-2.5,6-6.4,6.3c-1.5,0.1-3,0-4.5,0c-148.4,0-296.7,0-445.1,0c-1.3,0-2.7,0.1-4,0
	c-4-0.3-6.7-2-6.7-6.4c0-4.4,2.9-6.1,6.9-6.2c4.3-0.1,8.6,0,13.3,0c0.1-2.2,0.3-4,0.3-5.8c0-31.8-0.1-63.5,0.1-95.3
	c0.1-9.7-2.3-18.3-8.1-26.1c-15.5-20.8-31-41.5-46.4-62.4c-3.3-4.5-5.9-9.5-8.9-14.2C0,236.5,0,232.5,0,228.6z M414,119.9
	c-10.1,0-19.8,0-29.6,0c0,12.8,0,25.2,0,37.6c10.1,0,19.8,0,29.6,0C414,144.9,414,132.7,414,119.9z M454.9,191.5
	c0-12.9,0-25.3,0-37.7c-9.5,0-18.7,0-28,0c0,12.8,0,25.1,0,37.7C436.3,191.5,445.4,191.5,454.9,191.5z M498.3,175.4
	c0-8.7,0.4-16.8-0.1-24.8c-0.5-7-6.7-12.3-13.6-12.9c-7.2-0.6-15.1,3.8-15.9,10.7c-1.1,8.9-0.3,18-0.3,27.1
	C478.5,175.4,488.2,175.4,498.3,175.4z M414.2,106.7c0-7.3,0-14,0-20.8c0-1.2,0-2.3-0.1-3.5c-0.9-7.7-6.7-13.3-14.1-13.7
	c-7.5-0.4-14.9,4.3-15.5,11.1c-0.8,8.8-0.2,17.8-0.2,26.9C394.3,106.7,403.9,106.7,414.2,106.7z M455.1,140.6
	c0-8.8,0.2-17.1-0.1-25.3c-0.2-6.9-5.9-12.2-12.9-12.8c-7.1-0.6-14.3,3.7-14.9,10.3c-0.8,9.2-0.2,18.4-0.2,27.8
	C436.3,140.6,445.4,140.6,455.1,140.6z M345.4,191.4c8.9,0,17.2,0,25.6,0c0-12.7,0-25.1,0-37.6c-8.6,0-17,0-25.6,0
	C345.4,166.4,345.4,178.7,345.4,191.4z M371.3,140.5c0-9.3,0.2-18.1-0.1-26.8c-0.2-6.6-5.7-11.7-12.2-12
	c-6.8-0.3-13.2,4.1-13.6,10.4c-0.5,9.4-0.1,18.8-0.1,28.4C354,140.5,362.4,140.5,371.3,140.5z M292,253.3
	c7.2-7.2,14.1-14.1,21.2-21.2c-7-9.1-16.2-14.8-28.6-13.7c-6.2,0.5-10.3,6.5-7.4,11.6C281.8,238.2,287.2,245.9,292,253.3z"/>
<path d="M480.6,284c-2.1-9-9.5-15.3-18.3-15.5c-9.3-0.2-16.9,5.2-19.5,14c-2.6,8.7,1.2,17.5,9.4,22.6c1.2,0.8,2.7,2.1,2.9,3.4
	c0.4,2.9,0.1,5.8,0.1,8.7c-12.5,0-24.4,0-36.6,0c0-9,0.1-17.6-0.1-26.3c-0.1-3.2,0.8-5,3.8-6.5c8.5-4.3,13-13.8,11.3-22.4
	c-2.2-10.6-10.4-17.8-20.8-18.1c-9.5-0.3-18.8,6.6-21.2,15.8c-2.7,10,1.9,20,11.5,25.2c1.3,0.7,3.1,2,3.1,3.1
	c0.2,9.7,0.1,19.5,0.1,29.3c-12.8,0-24.9,0-37.6,0c-0.1-6.3-1.4-11.4,5.6-15.6c9.6-5.8,10.2-19.6,2.6-28c-7.4-8.3-20.7-8.6-28.5-0.5
	c-7.8,8.1-7.8,21.9,1.6,28.1c6.1,4,6.8,8.4,6.3,14.4c-0.2,2.1-0.1,4.3,0,6.5c0.1,6,2.1,8,8.1,8.1c10.1,0.1,20.3,0,30.4,0
	c3.7,0,7.5,0,11.1,0c0,5.1,0,9.5,0,14.1c-11.2,0-22,0-32.8,0c-7.3,0-8.8,1.5-8.8,8.7c0,22.1,0,44.2,0,66.4c0,7.1,1.7,8.8,8.8,8.8
	c25.3,0,50.6,0,75.8,0c7,0,9.1-2,9.1-9.3c0-21.8,0-43.6,0-65.4c0-7.3-1.9-9.1-9.1-9.2c-9.9,0-19.8,0-29.9,0c0-5,0-9.3,0-14.1
	c13.7,0,26.9,0,40.2,0c6.4,0,8.6-2.2,8.7-8.7c0-3.5,0.2-7,0-10.5c-0.2-3.1,0.7-5,3.6-6.7C478.8,300.3,482.4,291.7,480.6,284z
	 M362.2,293.7c-4-0.1-6.9-3.1-6.9-7c0.1-3.9,3.2-6.8,7.1-6.8c3.9,0.1,6.9,3.2,6.9,7C369.2,290.9,366.2,293.8,362.2,293.7z
	 M403.2,265.7c-0.1-4.9,4.3-9.2,9.2-9.2c5,0.1,9,4.3,8.8,9.4c-0.2,4.9-4.1,8.7-9.1,8.6C407.4,274.4,403.3,270.4,403.2,265.7z
	 M445,357c0,19.5,0,38.7,0,58.2c-22.8,0-45.4,0-68.3,0c0-19.5,0-38.7,0-58.2C399.5,357,422.1,357,445,357z M461.3,294.7
	c-3.9-0.1-6.9-3.1-6.8-7c0.1-3.8,3.2-6.8,7.1-6.7c3.9,0.1,6.8,3,6.7,7C468.2,292,465.4,294.8,461.3,294.7z"/>
<path d="M225.4,422.2c-4.1-0.1-7.1-3.2-7-7.4c0.1-4.2,3.3-7.1,7.4-6.9c4,0.2,6.7,3.1,6.7,7.1C232.6,419.2,229.6,422.2,225.4,422.2z"
	/>
<path d="M489.6,422.2c-4.1-0.2-6.9-3.5-6.7-7.6c0.2-4,3.2-6.7,7.2-6.6c4.2,0.1,7.1,3.2,6.9,7.4C497,419.4,493.7,422.4,489.6,422.2z"
	/>
</svg>
