<?xml version="1.0" encoding="utf-8"?>
<!-- Generator: Adobe Illustrator 27.9.0, SVG Export Plug-In . SVG Version: 6.00 Build 0)  -->
<svg version="1.1" id="Слой_1" xmlns="http://www.w3.org/2000/svg" xmlns:xlink="http://www.w3.org/1999/xlink" x="0px" y="0px"
	 viewBox="0 0 512 494.7" style="enable-background:new 0 0 512 494.7;" xml:space="preserve">
<path fill="white" d="M302.2,6.2c0.5,3,1.4,5.9,1.5,8.9c0.1,6.3-0.6,12.6-0.2,18.9c1.1,16,9.4,27.8,22.3,36.7c15,10.3,31.9,16.3,49.1,21.9
	c13.9,4.5,27.9,8.8,41.6,14.1c34.7,13.4,55.8,38.9,65,74.7c5.3,20.6,7.3,41.6,7.7,62.8c0.7,33.7-1.7,67.2-5.6,100.7
	c-0.3,3-1.1,5.7-4.5,5.4c-3.6-0.4-3.9-3.2-3.5-6.5c4.1-37.1,6.7-74.3,5-111.6c-0.8-17.5-3.2-34.8-7.9-51.8
	c-9-32.9-29.7-55.2-61.4-67c-17.7-6.6-36-11.5-53.6-18.3c-12-4.6-23.8-10.2-34.8-16.8C302.5,66.1,294.3,47,295,23.8
	c0.1-3.9,0.2-7.9,0.8-11.8c0.3-2,1.7-3.8,2.6-5.7C299.7,6.2,301,6.2,302.2,6.2z"/>
<path d="M211.2,6.2c0.9,1.4,2.5,2.8,2.6,4.3c0.1,9.8,0.8,19.6-0.4,29.3c-2.1,16.9-12.1,29.1-25.9,38.5c-16,10.8-34,16.9-52.2,22.8
	c-14.2,4.6-28.6,9-42.4,14.7c-31.2,13-49.3,37.1-57.1,69.6c-6.6,27.4-8,55.3-6.8,83.3c1.1,25.2,3.4,50.4,5.3,75.6
	c0.2,3.1-0.3,5.7-3.6,6c-3.1,0.3-4.2-1.9-4.5-4.9c-4.5-37.7-7-75.5-5.3-113.5c0.8-19.1,3.6-37.9,9.1-56.4c10.2-34,32-57.2,65-69.6
	c18.6-7,37.7-12.4,56.3-19.2c9-3.3,17.8-7.3,26.1-12.1c23.7-13.6,32.1-31.5,28.8-58.7c-0.4-3.2,0.8-6.6,1.2-9.8
	C208.7,6.2,209.9,6.2,211.2,6.2z"/>
<path d="M219.6,321.8c0.6-10.2,4.5-12.3,13.5-7.7c14.3,7.3,28.8,7.4,43.2,0.2c9.4-4.7,13-2.9,13.9,7.8c5.8,0.1,12.1,0.6,15.1,6.4
	c2,3.8,3.4,8.5,3.4,12.8c0,9.1-6.6,14.2-18.3,15.1c-4,15.7-17.5,17.4-30.2,19.5c-8.8,1.5-17.6-0.3-25.9-3.7c-7.4-3-13.5-7-14.5-15.7
	c-12.8-0.1-19-7.2-18.9-17.8C200.8,328.5,206.4,323.4,219.6,321.8z M281.2,321c-17.7,9.1-35.2,9-52.8,0.1c-0.9,9.5-0.9,9.5-10.1,9.5
	c-0.3,0-0.6,0-0.9,0c-5.6,0.1-8.4,2.8-8.5,8.4c-0.1,5.8,2.8,8.7,8.5,8.8c1.3,0,2.5,0,3.8,0c5.5,0.1,6.7,1.1,6.7,6.6
	c0,4.2,2,6.7,5.6,8.5c13.3,6.4,26.6,6.8,40.2,1.1c5-2.1,8.3-4.9,7.8-10.9c-0.3-3.7,2-5.4,5.7-5.3c2.1,0.1,4.1,0,6.2,0
	c3.8,0.1,5.9-2.2,6.8-5.5c1.5-5.5-0.5-12.4-8.9-11.9C282.1,331,282.1,330.5,281.2,321z"/>
<path d="M290.1,224.6c-2.2,13-13.1,15.6-23.5,18.4c-10.8,2.8-21.6,1.5-32-2.6c-7.6-2.9-13.8-7.1-14.9-15.8c-13.4-1.4-19-6.9-18.9-18
	c0.2-10.2,6.2-15.6,18.3-16.5c0.2-0.2,0.5-0.5,0.5-0.7c0.8-9.8,4.6-11.9,13.2-7.4c14.3,7.5,28.7,7.6,43.1,0.5
	c9.8-4.8,13.1-3.3,14.2,7.4c14.3,2.5,19.1,7.3,18.7,18.7C308.5,218.1,302.6,223.2,290.1,224.6z M228.4,189c-0.2,1.3-0.3,2-0.3,2.8
	c-0.3,5.8-1.3,6.8-7.1,6.8c-1.1,0-2.2,0-3.3,0c-6,0.1-8.7,2.8-8.7,8.6c0,5.7,2.9,8.6,8.8,8.6c1.3,0,2.5,0,3.8,0
	c5.3,0.1,6.5,1.1,6.5,6.3c0,4.4,1.9,7,5.8,8.8c13.6,6.6,27.3,6.7,41.1,0.5c4.5-2,7.1-4.9,6.7-10.1c-0.3-3.9,1.9-5.8,5.9-5.5
	c1.6,0.1,3.2,0,4.7,0c5.5-0.1,8.4-2.9,8.5-8.5c0.1-5.8-2.7-8.7-8.5-8.8c-1.3,0-2.5,0-3.8,0c-5.4-0.1-6.5-1.2-6.8-6.7
	c0-0.9-0.2-1.7-0.4-2.9C263.4,198.1,246,198,228.4,189z"/>
<path d="M219.5,123.9c0.2-2,0.2-3.8,0.7-5.4c1.3-4.5,5.4-5.7,10.3-3.9c6.3,2.4,12.6,5,19.1,6.4c9.3,1.9,18.2-0.4,26.5-4.7
	c9.8-5,12.7-3.5,14.2,7.5c14,2.4,18.9,7.2,18.6,18.4c-0.3,9.9-5.8,14.7-18.9,16.1c-0.9,8.4-6.5,12.7-13.8,15.6
	c-14.8,5.9-29.5,5.9-44.1-0.8c-8.5-3.9-9.9-5.7-12.5-14.7c-14.4-2.4-19-6.9-18.8-17.9C200.9,130.6,206.4,125.7,219.5,123.9z
	 M281.6,123c-18.2,9.1-35.6,9-53.1,0.2c-0.1,0.9-0.3,1.5-0.3,2.1c-0.3,6.7-0.8,7.2-7.5,7.2c-0.9,0-1.9,0-2.8,0
	c-5.9,0.1-8.8,3-8.8,8.7c0,5.8,2.7,8.5,8.7,8.6c1.3,0,2.5,0.1,3.8,0c4.4-0.2,7,1.6,6.7,6.4c-0.3,4.4,1.9,7,5.7,8.9
	c13.6,6.6,27.2,6.8,41,0.6c4.5-2,7.2-4.9,6.8-10.1c-0.3-4,2-5.7,5.9-5.7c1.4,0,2.8,0,4.3,0c6.1-0.1,8.9-2.6,9-8.4
	c0.1-5.9-2.9-8.9-9-9c-1.7,0-3.5-0.1-5.2,0c-3.2,0.1-4.6-1.6-4.9-4.5C281.5,126.5,281.6,125.1,281.6,123z"/>
<path d="M132.7,431.2c-3.1,18.8-6.2,37.6-9.3,56.4c-0.5,2.8-2,4.9-5.2,4.1c-3.3-0.8-3.1-3.6-2.7-6.2c1.9-11.2,3.6-22.4,5.8-33.5
	c2.9-15.1,1.5-30.2,0.5-45.3c-1.2-17.8-2.2-35.6-3.5-53.4c-1.7-23.5-3.3-46.9-5.4-70.3c-1.7-18.9-3.9-37.7-5.9-56.5
	c-0.3-2.8,0.2-5.3,3.4-5.7c3.5-0.5,4.6,2,4.9,5c2.9,31.4,6.1,62.8,8.6,94.3c2.8,34.9,5,69.9,7.4,104.9c0.1,2,0,4.1,0,6.2
	C131.8,431.1,132.2,431.2,132.7,431.2z"/>
<path d="M377.9,433.8c1.3-20.3,2.4-37.3,3.6-54.3c1.4-20.8,2.7-41.6,4.3-62.4c1.6-20.9,3.5-41.8,5.4-62.7c0.9-9.4,2.1-18.8,3.1-28.2
	c0.3-3.1,1.1-6,4.9-5.5c3.5,0.4,3.7,3.3,3.4,6.2c-3.5,39-7.2,77.9-10.4,116.9c-2.2,26.3-3.8,52.6-5.5,78.9
	c-1.3,19,2.9,37.3,6.1,55.8c0.3,2,1,4,1.2,6c0.4,2.9,1.3,6.5-3,7.2c-3.9,0.6-4.5-2.7-5.1-5.5c-1.3-6.3-2.6-12.7-3.5-19.1
	C380.6,455,379.1,442.8,377.9,433.8z"/>
<path d="M219.6,387.8c0.1-0.9,0.2-1.5,0.2-2.1c0.5-7.7,4.8-9.8,11.9-6.6c5.5,2.5,11.4,4.5,17.3,5.8c9.5,2.1,18.5-0.3,27-4.6
	c9.9-5,13-3.4,14.3,8c5.9-0.4,12,0.4,15.1,6.1c2,3.7,3.3,8.2,3.3,12.4c0.1,9.3-6.1,14-18.5,15.3c-2.7,14.4-14.9,16.6-26.2,19.2
	c-9.6,2.2-19.2,0.7-28.4-2.7c-8-3-15.1-6.9-15.9-16.5c-13.1-1.2-18.8-6.3-19-16.4C200.6,394.7,205.8,389.6,219.6,387.8z M228.5,387
	c-0.9,9.3-0.9,9.3-10.1,9.4c-0.2,0-0.3,0-0.5,0c-6.1,0.1-8.9,2.7-9,8.5c-0.1,5.9,2.8,8.9,9,9c0.9,0,1.9,0,2.8,0
	c6.5,0,6.6,0.5,7.5,6.9c0.4,2.7,2.3,6.2,4.6,7.4c14.6,8,29.6,7.9,44.2-0.1c2.1-1.2,4-4.5,4.3-7.1c1-6.7,1-7,7.8-7.1
	c1.3,0,2.5,0,3.8,0c4.5-0.1,6.9-2.5,7.6-6.9c1-6.8-2.1-10.4-9.1-10.6c-9.1-0.1-9.1-0.1-10.1-8.6c0-0.1-0.2-0.2-0.5-0.6
	C263.6,395.9,246.2,395.9,228.5,387z"/>
<path d="M290.1,290.2c-2.8,14.5-14.9,16.7-26.2,19.2c-10.7,2.3-21.4,0.6-31.4-4c-8.7-4-10.3-5.8-12.9-15c-14.5-2.6-19-6.9-18.8-18
	c0.2-9.9,5.5-14.7,18.7-16.6c0.1-1,0.2-2,0.3-3.1c0.6-6.3,4.8-8.6,10.7-6.2c6.1,2.4,12.2,5,18.6,6.4c9.4,2.1,18.5-0.3,27-4.6
	c9.8-5,12.8-3.4,14.2,7.5c14.6,2.9,19.1,7.5,18.6,18.8C308.5,284.1,302.9,288.8,290.1,290.2z M228.3,254.9c-0.1,1.5-0.2,2.5-0.2,3.4
	c0.2,4.4-1.9,6.4-6.3,6.1c-1.1-0.1-2.2,0-3.3,0c-6.6,0.1-9.6,2.8-9.6,8.9c0.1,5.9,2.9,8.4,9.4,8.5c1.3,0,2.5,0,3.8,0
	c4.1-0.1,6.3,1.8,6,6c-0.3,4.6,1.9,7.4,5.8,9.3c13.5,6.4,26.9,6.7,40.6,0.6c4.6-2.1,7.5-4.9,7.1-10.4c-0.3-3.8,1.9-5.4,5.5-5.4
	c1.4,0,2.8,0,4.3,0c6.4-0.1,9.3-2.7,9.3-8.6c0-5.9-2.9-8.7-9.2-8.8c-1.6,0-3.2,0-4.7,0c-3.6,0.1-5.2-1.8-5.2-5.2
	c0-1.2-0.1-2.5-0.2-4.2C263.7,263.8,246.3,264,228.3,254.9z"/>
<path d="M284.2,86.6c0,4.1,0,8.2,0,12.3c0,5.4-2.4,9.4-7.4,11.6c-14.7,6.4-29.4,6.3-44-0.1c-4.8-2.1-7.2-6-7.3-11.2
	c-0.1-8.4-0.1-16.7,0-25.1c0-5.3,2.6-9,7.4-11.1c14.5-6.3,29-6.4,43.5-0.1c5.2,2.2,7.7,6.2,7.7,11.9
	C284.1,78.7,284.2,82.6,284.2,86.6z M275.8,86.7c0-3.8-0.1-7.6,0-11.4c0.1-2.8-0.9-4.4-3.5-5.4c-11.7-4.6-23.3-4.6-35,0
	c-2.5,1-3.6,2.6-3.5,5.4c0.2,7.4,0.2,14.9,0,22.3c-0.1,3.5,1.4,5.1,4.4,6.2c10.8,3.9,21.5,4.2,32.4,0.3c3.8-1.3,5.8-3.2,5.3-7.5
	C275.5,93.4,275.8,90,275.8,86.7z"/>
<path d="M284.2,463.3c0,3.9,0,7.9,0,11.8c-0.1,5.4-2.5,9.5-7.4,11.7c-14.4,6.7-28.9,6.9-43.4,0.2c-5.3-2.4-7.9-6.5-7.9-12.4
	c0-7.7-0.1-15.5,0-23.2c0.1-6.7,4.3-9.5,10.4-6.6c12.7,6,25.2,6,37.9,0c6.1-2.9,10.3-0.2,10.4,6.6
	C284.2,455.4,284.2,459.3,284.2,463.3z M233.8,453c0,7.8-0.2,14.9,0.1,22c0.1,1.6,1.6,3.9,3.1,4.6c11.8,5.6,23.7,5.5,35.5,0
	c1.4-0.7,3-2.7,3-4.1c0.3-7.2,0.1-14.5,0.1-22.3C261.8,458.9,248.2,459.2,233.8,453z"/>
</svg>
