<?xml version="1.0" encoding="utf-8"?>
<!-- Generator: Adobe Illustrator 27.9.0, SVG Export Plug-In . SVG Version: 6.00 Build 0)  -->
<svg version="1.1" id="Слой_1" xmlns="http://www.w3.org/2000/svg" xmlns:xlink="http://www.w3.org/1999/xlink" x="0px" y="0px"
	 viewBox="0 0 512 494.7" style="enable-background:new 0 0 512 494.7;" xml:space="preserve">
<path fill="white" d="M407.4,0c4.3,1.2,8.6,2.2,12.8,3.7c32.4,11.6,50.5,44.5,42.9,78.3c-1.9,8.2-1.5,16.2,0.9,24.2c5.3,17.4-2,30.4-19.7,34.4
	c-33.8,7.5-67.9,10.2-102.4,6.4c-11.3-1.2-22.6-2.9-33.8-5c-14.8-2.7-23.2-16.9-18.6-31.3c3.3-10.3,4.4-20.7,3.1-31.4
	c-0.1-1-0.2-1.9-0.4-2.8c-0.1-0.6-0.5-1.2-0.9-2.1c-1.8,0-3.7,0-5.6,0c-38.4,0-76.8-0.1-115.2,0c-16.9,0-29.2-7.1-36.8-22.3
	c-0.6-1.1-2.2-2.5-3.4-2.5c-23-0.3-45.9-0.5-68.2,6.4C32.8,65,22,88.1,25.2,116.5c0.7,5.8,2.6,11.5,3.9,17.2c0.4,0,0.8,0,1.2,0
	c0.4-0.9,0.8-1.9,1.1-2.8c6.2-20.4,17.3-36.6,39.4-41.3c21-4.4,40.1,1,55.3,16.2c21.7,21.7,12.6,58.2-16.5,68.1
	c-21.3,7.2-42.3,6.2-62.8-2.8c-1.2-0.5-2.4-1-3.5-1.5c-0.1-0.1-0.3,0-0.7,0.1c-2.4,12.9-1.7,25.7,1,38.5c1.2,5.8,3.1,11.4,4.8,17.1
	c1.7,5.8,0,10.1-4.9,11.8c-4.5,1.6-8.6-0.7-10.9-6.2c-7.3-17.8-8.8-36.4-7.4-55.4c0.4-4.6,1.1-9.3,1.4-13.9c0.1-1.7-0.3-4-1.4-5.2
	c-13.3-14.9-18.1-32.8-17-52.2c2.2-37.4,23-60.3,61.5-67.3c13-2.4,26.4-3,39.7-4c7-0.5,14.1-0.1,21.5-0.1c0.5-2,0.8-3.9,1.4-5.7
	c3.8-12.5,11.8-21.1,24.2-25.4c1.5-0.5,2.8-1.2,4.3-1.8C242.8,0,325.1,0,407.4,0z M284,16.5c-13.8,0-27.6,0-41.5,0
	c-24.6,0-49.2-0.1-73.7,0C154,16.6,144.3,29.1,148,42.7c2.5,9.3,10.7,14.9,22.2,14.9c39.8,0,79.7,0,119.5,0
	c11.6,0,17.1,3.1,18.3,14.5c1.1,10.5,7,12.5,15.1,13.7c0.3,0,0.6,0.1,1,0.1c23.8,4.7,47.8,5.5,71.9,3.7c15.8-1.2,31.5-3.6,46.5-9.4
	c3.4-1.3,5.5-3.4,5.3-7c-0.3-6.7,0-13.6-1.6-20c-5.8-22.3-25.3-36.7-48.9-36.8C359.5,16.4,321.8,16.5,284,16.5z M445.1,97.6
	c-45.1,12.8-90.3,12.5-135.5,2.5c-1.3,4.8-2.4,9.5-3.8,14.1c-2,6.6-0.1,10.5,6.6,11.6c12.2,2,24.4,3.9,36.6,4.9
	c31.5,2.7,62.8,0.3,93.6-6.9c4.8-1.1,7-3.9,6.2-8.7C448,109.2,446.5,103.5,445.1,97.6z M82,162.6c7.6-1.6,15.4-2.7,22.8-5.1
	c11.4-3.8,18-15.2,16.2-27c-1.1-7.5-5.5-12.8-11.4-17.1c-24.2-17.7-52.2-8.7-61.1,19.7c-1.4,4.6-2.2,9.3-3.4,14
	c-0.8,2.8,0.2,4.3,2.7,5.7C58.4,158.6,69.7,161.8,82,162.6z"/>
<path fill="white" d="M27.4,494.7c-0.8-0.4-1.7-0.8-2.5-1.1c-11-3.6-17.7-12.7-17.7-24.3c0-44.4,0.1-88.9-0.1-133.3c0-10.9,4.5-18.8,14-24
	c35.7-19.4,71.2-38.9,107-58.1c19.1-10.2,38.4-20,59.5-25.7c30.2-8.2,60.2-9,89.3,4.6c15.7,7.3,28.9,18,39.4,31.8
	c5.6,7.4,11.9,10.9,21.4,11.2c42.2,1.5,84.2,5.3,125.4,15.1c4.7,1.1,9.2,2.7,13.9,3.7c11.8,2.4,20.1,8.7,23.8,20.4
	c0,46.7,0,93.4,0,140.1c-3.7,9.7-10,16.3-20.4,19.1c-34.7,9.2-69.9,16-105.7,18.7c-6.2,0.5-12.4,1.2-18.6,1.9c-14.5,0-28.9,0-43.4,0
	c-10-1-20.1-1.9-30.1-2.9c-34.7-3.1-68.9-9.1-103-16.1c-11.9-2.5-23.7-5.3-36.1-2.7c-25.2,5.2-50.6,9.9-75.8,14.9
	c-10.6,2.1-21.2,4.5-31.8,6.7C33.2,494.7,30.3,494.7,27.4,494.7z M23.6,401.8c0,21.6,0,43.1,0,64.7c0,9.4,3.8,12.5,13.1,10.6
	c31.4-6.3,62.8-12.7,94.3-18.8c11.3-2.2,22.7-4.7,34.4-2.6c27.6,5,55.1,10.5,82.8,14.9c40.1,6.3,80.3,9.3,120.9,5.9
	c35.9-2.9,71.2-8.8,105.9-18.4c8.3-2.3,9.5-4,9.5-12.5c0-38.2,0-76.3,0-114.5c0-17.8,0-17.7-17.3-22.1
	c-42.5-10.9-85.9-15.2-129.6-16.4c-14-0.4-24.7-5.3-33.5-16.6c-21.9-28.3-51.6-39.2-86.6-36.4c-20.9,1.7-40.6,8.1-59,17.8
	c-43.3,22.8-86.3,46.1-129.4,69.1c-4.2,2.3-5.5,5.8-5.5,10.4C23.7,358.7,23.6,380.2,23.6,401.8z"/>
<path fill="white" d="M375.5,239.1c-27.9-0.7-54.8-8.9-75.9-31.2c-4.8-5.1-8.6-11.2-12.3-17.2c-3-4.8-1.5-9.7,2.8-12.1c4.4-2.4,8.9-1,11.7,4.1
	c13.6,24,35.4,34.9,61.7,38.5c21.6,3,42.2-0.2,61.5-10.6c11.7-6.3,20.9-15.3,27.7-26.8c1.4-2.4,4-5.3,6.4-5.7c2.6-0.4,6.8,1,8.2,3.1
	c1.5,2.3,1.7,6.7,0.4,9.3c-6.2,12.7-15.7,22.6-27.5,30.4C421.2,233.7,400,238.9,375.5,239.1z"/>
<path fill="white" d="M378.8,198.2c-20-0.6-37-5.2-51.3-17.5c-1.6-1.3-3.1-2.9-4.1-4.6c-2-3.4-0.9-8,2.2-10.4c3.1-2.4,7.7-2.4,11,0.8
	c8.2,7.8,18.1,12.2,29.1,13.7c19.3,2.7,37.4,0.2,52.7-13.5c4.3-3.8,9-3.8,12.4-0.2c3.4,3.6,3.1,8.5-1,12.4
	c-11.1,10.6-24.6,16.1-39.5,18.2C385.9,197.7,381.6,197.9,378.8,198.2z"/>
<path fill="white" d="M314.4,366.3c-12.3,0.2-31.9-2.7-49.6-13.8c-13-8.1-22.2-19.8-31.1-31.9c-4.1-5.6-8.2-11.1-12.5-16.5
	c-9.3-11.6-20.8-20-35.3-23.8c-4.2-1.1-6.9-3.4-7.1-7.9c-0.2-4.7,2.4-7.2,6.7-8.7c16.3-5.8,32.9-9.5,50.4-8
	c24.4,2.1,43.3,13.8,57.9,33.1c6.7,8.9,15.4,15,26.1,17.8c3.4,0.9,6.9,1.3,10.4,1.6c29.4,2.6,58.8,5,88.2,7.7
	c8.7,0.8,11.4,8.1,5.8,14.9c-12.4,15.1-29.2,23.2-47.5,28.5C359,364.4,340.8,366.1,314.4,366.3z M212.4,273.7
	c13.4,8.5,22.3,19.8,30.7,31.6c2.3,3.3,4.7,6.5,7,9.8c12,17.1,27.5,29.4,48.6,32.6c25.7,3.9,51.2,2,76.1-5.5
	c8.4-2.5,16.4-6.7,24.6-10.1c-0.2-0.6-0.3-1.1-0.5-1.7c-1.5-0.3-3-0.8-4.6-0.9c-20.3-1.4-40.7-3.1-61-4c-21.8-1-39.9-9-53.1-26.7
	C263.4,276.1,240.8,268.9,212.4,273.7z"/>
</svg>
