<?xml version="1.0" encoding="utf-8"?>
<!-- Generator: Adobe Illustrator 27.9.0, SVG Export Plug-In . SVG Version: 6.00 Build 0)  -->
<svg version="1.1" id="Слой_1" xmlns="http://www.w3.org/2000/svg" xmlns:xlink="http://www.w3.org/1999/xlink" x="0px" y="0px"
	 viewBox="0 0 512 494.7" style="enable-background:new 0 0 512 494.7;" xml:space="preserve">
<path d="M10,483c2.4-3.7,5.6-5.3,10.1-4.9c3.3,0.3,6.7,0.1,11,0.1c-8.3-12.6-5.6-26.3-5.6-39.6c-0.1-118.9-0.1-237.8-0.1-356.7
	c0-37.4,24.8-68.3,61.2-76.4c3.7-0.8,7.6-1.2,11.4-1.4c12.1-0.4,24.1-1.2,36.2-2.5c26.2-3,49.1,6.6,68.9,23.3
	c9.4,7.9,17.8,17,26.4,25.8c4.4,4.5,4.4,8.8,0.8,12.2c-3.5,3.3-8.4,2.6-12.5-2c-11.7-13.1-23.9-25.5-39.4-34.1
	c-11.4-6.4-23.6-9.9-36.6-10c-3.5,0-7.1,1.3-10.6,2c-1.9,0.3-3.8,0.6-5.6,0.7c-11,0.4-22.2-0.2-33.1,1.1
	c-25.9,3-48.4,26.8-50.9,52.7c-0.5,4.9-0.7,9.9-0.7,14.9c-0.1,74,0,148.1-0.1,222.1c0,1.9,0,3.8,0,6.1c18.2,0,36.2,0,54.8,0
	c0.9-6.7,1.9-13.6,2.8-20.5c3.5-27.4,6.9-54.9,10.3-82.3c3.3-26.7,6.4-53.4,10-80c3.2-23,1.1-46.1,1.7-69.1c0.1-4.3,1.3-7.6,5.6-9
	c5.3-1.7,9.8,2.2,9.8,8.4c0,15.7,0.1,31.4-0.1,47.1c0,3.6,1.1,6.3,3.1,9.2c13.9,19.9,28.1,39.8,41.4,60.1c6.4,9.7,11,20.6,16.8,30.7
	c6.5,11.3,14.1,21.8,24.7,29.7c5.8,4.3,12,7.2,20.2,5.8c-3.1-7.4-6.3-14.5-9.1-21.7c-0.8-2-2-4.8-1.2-6.3c1.3-2.5,3.7-5.2,6.3-6.2
	c3.5-1.3,6.6,0.9,8.2,4.2c1.8,3.7,3.3,7.6,5,11.4c33.7,78.4,67.4,156.8,101,235.2c3.1,7.3,7.5,12.9,15.8,14.6
	c13.8,2.8,25.9-10,22.3-23.7c-0.2-0.8-0.5-1.5-0.7-2.3c-1.6-5.4,0.1-9.5,4.6-10.9c4.6-1.5,8.2,0.7,10.2,6.1
	c3.1,8.7,2.9,17.2-0.7,25.7c-0.7,1.7-1.5,3.4-2.6,5.7c2.3,0,4,0,5.7,0c28.4,0,56.7,0,85.1,0c4.5,0,8.5,0.5,10.1,5.3
	c1.5,4.5-1,7.6-4.5,10.1c-162.5,0-325,0-487.5,0C10,490,10,486.5,10,483z M342.2,478c-1.3-2.8-2.3-5-3.3-7.2
	c-29-67.5-58.1-134.9-87-202.5c-1.8-4.3-3.8-6.1-8.6-5.8c-14.5,0.7-26.8-4.8-37.2-14.9c-10.6-10.3-19.3-22-25.7-35.1
	c-12-24.5-27.3-47-43.3-69c-0.8-1.1-1.7-2.1-3.3-4c-12.6,100.5-25.1,200-37.6,299.5c7.6,1.9,14.4,3.6,21.2,5.4
	c16,4.3,26.2,14.7,31,30.4c0.3,1,0.6,2,0.9,3C213.6,478,277.6,478,342.2,478z M40.9,332.4c0,1.9,0,3.4,0,5c0,39.6,0,79.1,0,118.7
	c0,14.1,8,22,22,22.1c21.8,0,43.6,0,65.3,0c1.4,0,2.7-0.1,4.2-0.2c-2.1-9.3-9.4-16-20.6-18.8c-8.2-2.1-16.4-4-24.6-6.1
	c-5.8-1.5-7.8-4.4-7.2-10c0.4-3.7,0.8-7.3,1.3-11c2.7-21.7,5.5-43.4,8.2-65.2c1.4-11.4,2.8-22.8,4.3-34.5
	C76.2,332.4,58.9,332.4,40.9,332.4z"/>
<path d="M470.6,172.8c16.5,31,8.4,64.6-12.6,84.8c-12.4,11.9-27.4,18.3-44.5,18.5c-20.3,0.3-40.7,0.1-61,0.1
	c-8.6,0-16.3-2.8-24.4-8.1c0.9,2.3,1.4,3.7,2,5c15.6,36.4,31.5,72.7,46.8,109.3c6.1,14.5,15.8,24.5,30.3,30.2c4,1.6,8,3.2,11.9,5
	c4.5,2.1,6.1,6.1,4.4,10.3c-1.6,3.8-5.7,5.6-10,4.1c-23.9-8-42.1-21.4-52.3-46.1c-25-60.7-51.5-120.8-77.4-181.1
	c-3-7.1-2.3-11.6,2.3-13.7c5-2.3,8.8,0.1,12,7.5c3.9,9.1,7.8,18.1,12.4,27.3c2.7-18.6,8.4-35.9,20.2-51.1c-1.2-0.8-2.1-1.6-3.2-2.2
	c-27.3-15.4-48.5-37.5-68.2-61.3c-3.1-3.8-2.6-8.3,0.9-11.1c3.4-2.8,7.7-2.5,11.1,1.2c6.7,7.4,13,15,19.8,22.2
	c13.8,14.6,29.2,27.4,47,37c2,1.1,3.6,2,5.9,0c15.1-13.1,32.6-20.6,52.5-22.2c1.1-0.1,2.2-0.4,3.6-0.6c-0.8-10.3,1.5-19.7,8.1-27.7
	c9.1-11.1,23.5-15.4,37.2-11c7.1,2.3,14.2,4.8,21.3,7.4c14.3,5.2,22.6,15.7,23.9,30.7c1.3,14.8-4.7,26.5-17.6,34.3
	C472.2,171.8,471.5,172.2,470.6,172.8z M425.3,259.3c-2.5-2.6-3.9-3.9-5.2-5.3c-13.6-14.7-20.8-32-20.6-52.2c0-4.5,3.3-7.7,7.5-7.7
	c4.2-0.1,7.5,3.1,7.9,7.4c0.1,0.8,0,1.6,0,2.4c1.3,19.9,9.6,35.8,26.1,47.2c21.6-14.3,30.8-45.9,14.9-72.6c-0.7-1.2-2.3-2.2-3.6-2.7
	c-9.4-3.1-19-5.5-28.1-9.3c-5.7-2.4-10.5-6.9-15.8-10.4c-1.2-0.8-2.6-2.1-3.9-2.2c-17-0.2-32.4,4.5-46.4,15.2c6,2.5,11.6,4.7,17.2,7
	c5.2,2.2,7.2,6.3,5.4,10.6c-1.8,4.4-6,5.9-11.3,3.8c-6.7-2.6-13.5-5.1-20-8.1c-3.1-1.4-4.7-0.8-6.7,1.8
	c-10.2,13.8-15.5,29.3-16.2,46.3c-0.8,17.6,10.7,29.6,28.3,29.7c18.1,0.1,36.2,0.1,54.3,0C414.1,260.4,419.1,259.8,425.3,259.3z
	 M454.9,160.2c9.9,0,17.7-6.3,19.6-15.1c2.2-9.8-2.1-19.4-11-23c-8.2-3.4-16.8-6-25.3-8.7c-1.9-0.6-4.1-0.6-6.1-0.2
	c-8.9,1.6-15.6,8.6-16.4,17c-1,9.9,3.6,18,12.4,21.5c7.3,2.8,14.7,5.3,22.1,7.7C452.1,160,454,160.1,454.9,160.2z"/>
<path d="M245.9,90c-4.7,0.1-9-4.3-9-9.2c0-4.3,3.1-7.5,7.4-7.6c4.5-0.1,8.8,4.1,9,8.7C253.5,86.4,250.3,89.9,245.9,90z"/>
</svg>
