<svg width="24" height="24" viewBox="0 0 24 24" fill="none"
    xmlns="http://www.w3.org/2000/svg">
    <mask id="mask0_592_6067" style="mask-type:alpha" maskUnits="userSpaceOnUse" x="0" y="0" width="24" height="24">
        <rect width="24" height="24" transform="matrix(-1 0 0 1 24 0)" fill="white"/>
    </mask>
    <g mask="url(#mask0_592_6067)">
        <path d="M14.45 12L8.10005 18.35C7.85005 18.6 7.72922 18.8917 7.73755 19.225C7.74588 19.5583 7.87505 19.85 8.12505 20.1C8.37505 20.35 8.66672 20.475 9.00005 20.475C9.33338 20.475 9.62505 20.35 9.87505 20.1L16.575 13.425C16.775 13.225 16.925 13 17.025 12.75C17.125 12.5 17.175 12.25 17.175 12C17.175 11.75 17.125 11.5 17.025 11.25C16.925 11 16.775 10.775 16.575 10.575L9.87505 3.87499C9.62505 3.62499 9.32922 3.50415 8.98755 3.51249C8.64588 3.52082 8.35005 3.64999 8.10005 3.89999C7.85005 4.14999 7.72505 4.44165 7.72505 4.77499C7.72505 5.10832 7.85005 5.39999 8.10005 5.64999L14.45 12Z" fill="white"/>
    </g>
</svg>
