<svg width="11" height="18" viewBox="0 0 11 18" fill="none" xmlns="http://www.w3.org/2000/svg">
<path d="M3.54995 8.99999L9.89995 15.35C10.15 15.6 10.2708 15.8917 10.2625 16.225C10.2541 16.5583 10.125 16.85 9.87495 17.1C9.62495 17.35 9.33328 17.475 8.99995 17.475C8.66662 17.475 8.37495 17.35 8.12495 17.1L1.42495 10.425C1.22495 10.225 1.07495 9.99999 0.974951 9.74999C0.874951 9.49999 0.824951 9.24999 0.824951 8.99999C0.824951 8.74999 0.874951 8.49999 0.974951 8.24999C1.07495 7.99999 1.22495 7.77499 1.42495 7.57499L8.12495 0.874988C8.37495 0.624988 8.67078 0.504155 9.01245 0.512488C9.35412 0.520822 9.64995 0.649988 9.89995 0.899988C10.15 1.14999 10.275 1.44165 10.275 1.77499C10.275 2.10832 10.15 2.39999 9.89995 2.64999L3.54995 8.99999Z" fill="#282828"/>
</svg>
