<svg width="22" height="23" viewBox="0 0 22 23" fill="none" xmlns="http://www.w3.org/2000/svg">
<path fill-rule="evenodd" clip-rule="evenodd" d="M5 0C4.44772 0 4 0.447715 4 1V2H3C1.34315 2 0 3.34315 0 5V19C0 20.6569 1.34315 22 3 22H11.101C10.5151 21.4259 10.0297 20.7496 9.67363 20H3C2.44772 20 2 19.5523 2 19V10H18V10.2899C18.7224 10.5049 19.396 10.8334 20 11.2547V5C20 3.34315 18.6569 2 17 2H16V1C16 0.447715 15.5523 0 15 0C14.4477 0 14 0.447715 14 1V2H6V1C6 0.447715 5.55228 0 5 0ZM14 5V4H6V5C6 5.55228 5.55228 6 5 6C4.44772 6 4 5.55228 4 5V4H3C2.44772 4 2 4.44772 2 5V8H18V5C18 4.44772 17.5523 4 17 4H16V5C16 5.55228 15.5523 6 15 6C14.4477 6 14 5.55228 14 5Z" fill="#34A853"/>
<path d="M13.2929 16.7071C13.6834 16.3166 14.3166 16.3166 14.7071 16.7071L15.3483 17.3482L17.2473 15.4491C17.6379 15.0586 18.271 15.0586 18.6616 15.4491C19.0521 15.8397 19.0521 16.4728 18.6616 16.8634L16.1213 19.4036C16.0349 19.49 15.9367 19.5573 15.8318 19.6054C15.4488 19.8294 14.9488 19.7772 14.6203 19.4487L13.2929 18.1213C12.9024 17.7308 12.9024 17.0976 13.2929 16.7071Z" fill="#34A853"/>
<path fill-rule="evenodd" clip-rule="evenodd" d="M22 17C22 20.3137 19.3137 23 16 23C12.6863 23 10 20.3137 10 17C10 13.6863 12.6863 11 16 11C19.3137 11 22 13.6863 22 17ZM11.9819 17C11.9819 19.2191 13.7809 21.0181 16 21.0181C18.2191 21.0181 20.0181 19.2191 20.0181 17C20.0181 14.7809 18.2191 12.9819 16 12.9819C13.7809 12.9819 11.9819 14.7809 11.9819 17Z" fill="#34A853"/>
</svg>
