<svg width="21" height="22" viewBox="0 0 21 22" fill="none"
    xmlns="http://www.w3.org/2000/svg">
    <path fill-rule="evenodd" clip-rule="evenodd" d="M4.5 1C4.5 0.447715 4.94772 0 5.5 0C6.05228 0 6.5 0.447715 6.5 1V2H14.5V1C14.5 0.447715 14.9477 0 15.5 0C16.0523 0 16.5 0.447715 16.5 1V2H17.5C19.1569 2 20.5 3.34315 20.5 5V19C20.5 20.6569 19.1569 22 17.5 22H3.5C1.84315 22 0.5 20.6569 0.5 19V5C0.5 3.34315 1.84315 2 3.5 2H4.5V1ZM14.5 4V5C14.5 5.55228 14.9477 6 15.5 6C16.0523 6 16.5 5.55228 16.5 5V4H17.5C18.0523 4 18.5 4.44772 18.5 5V8H2.5V5C2.5 4.44772 2.94772 4 3.5 4H4.5V5C4.5 5.55228 4.94772 6 5.5 6C6.05228 6 6.5 5.55228 6.5 5V4H14.5ZM2.5 10V19C2.5 19.5523 2.94772 20 3.5 20H17.5C18.0523 20 18.5 19.5523 18.5 19V10H2.5Z" fill="white"/>
</svg>
