<svg width="21" height="22" viewBox="0 0 21 22" fill="none"
    xmlns="http://www.w3.org/2000/svg">
    <path fill-rule="evenodd" clip-rule="evenodd" d="M2.68753 10.3788C2.53002 10.759 2.5 10.9533 2.5 11V19.0018C2.5 19.5529 2.94652 20 3.5 20H6.5V14C6.5 12.8954 7.39543 12 8.5 12H12.5C13.6046 12 14.5 12.8954 14.5 14V20H17.5C18.0535 20 18.5 19.5529 18.5 19.0018V11C18.5 10.9533 18.47 10.759 18.3125 10.3788C18.1662 10.0256 17.9443 9.5926 17.6547 9.10248C17.0764 8.1238 16.265 6.97999 15.3568 5.89018C14.4465 4.79788 13.4639 3.78969 12.5502 3.06454C12.0935 2.70204 11.6736 2.42608 11.3055 2.2444C10.929 2.05862 10.6641 2 10.5 2C10.3359 2 10.071 2.05862 9.6945 2.2444C9.32635 2.42608 8.90653 2.70204 8.44978 3.06454C7.53609 3.78969 6.55348 4.79788 5.64322 5.89018C4.73505 6.97999 3.92361 8.1238 3.3453 9.10248C3.05568 9.5926 2.83385 10.0256 2.68753 10.3788ZM8.80941 0.450912C9.3353 0.19138 9.9141 0 10.5 0C11.0859 0 11.6647 0.19138 12.1906 0.450912C12.7248 0.71454 13.2659 1.07921 13.7935 1.49796C14.8486 2.33531 15.9285 3.45212 16.8932 4.60982C17.8601 5.77001 18.7361 7.0012 19.3766 8.08502C19.6963 8.62614 19.9667 9.14623 20.1602 9.61335C20.3425 10.0535 20.5 10.5467 20.5 11V19.0018C20.5 20.6599 19.1557 22 17.5 22H14.5C13.3954 22 12.5 21.1046 12.5 20V14H8.5V20C8.5 21.1046 7.60457 22 6.5 22H3.5C1.84434 22 0.5 20.6599 0.5 19.0018V11C0.5 10.5467 0.657481 10.0535 0.839816 9.61335C1.03334 9.14623 1.30369 8.62614 1.62345 8.08502C2.26389 7.0012 3.13995 5.77001 4.10678 4.60982C5.07152 3.45212 6.15141 2.33531 7.20647 1.49796C7.7341 1.07921 8.27521 0.71454 8.80941 0.450912Z" fill="white"/>
</svg>
