<svg width="20" height="24" viewBox="0 0 20 24" fill="none" xmlns="http://www.w3.org/2000/svg">
<path fill-rule="evenodd" clip-rule="evenodd" d="M10.0036 14.0035C12.4888 14.0035 14.5036 11.9887 14.5036 9.50347C14.5036 7.01819 12.4888 5.00347 10.0036 5.00347C7.51828 5.00347 5.50356 7.01819 5.50356 9.50347C5.50356 11.9887 7.51828 14.0035 10.0036 14.0035ZM10.0036 12.0071C8.62087 12.0071 7.49997 10.8862 7.49997 9.50347C7.49997 8.12077 8.62087 6.99988 10.0036 6.99988C11.3863 6.99988 12.5071 8.12077 12.5071 9.50347C12.5071 10.8862 11.3863 12.0071 10.0036 12.0071Z" fill="#34A853"/>
<path fill-rule="evenodd" clip-rule="evenodd" d="M19.272 11.5818C20.5649 5.78816 16.0052 0.00354004 9.99996 0.00354004C3.99646 0.00354004 -0.563639 5.7961 0.728129 11.5825C1.7252 16.2821 5.75717 20.8465 8.16356 23.2269C9.19416 24.2463 10.8058 24.2463 11.8364 23.2269C14.2429 20.8464 18.2752 16.2816 19.272 11.5818ZM9.99996 2.00354C14.7124 2.00354 18.3368 6.58981 17.32 11.1462C16.8316 13.3355 15.7359 15.3015 14.4501 17.119C13.1063 19.0184 11.5829 20.6644 10.4299 21.805C10.1785 22.0536 9.82141 22.0536 9.57006 21.805C8.4171 20.6645 6.89376 19.0186 5.55006 17.1193C4.26416 15.3017 3.16883 13.3361 2.68008 11.1467C1.66435 6.59682 5.29009 2.00354 9.99996 2.00354Z" fill="#34A853"/>
</svg>
