<svg width="20" height="23" viewBox="0 0 20 23" fill="none" xmlns="http://www.w3.org/2000/svg">
<path fill-rule="evenodd" clip-rule="evenodd" d="M2.99998 0.5H11C11.5523 0.5 12 0.947716 12 1.5C12 2.05228 11.5523 2.5 11 2.5H2.99998C2.4477 2.5 1.99998 2.94772 1.99998 3.5V19.5C1.99998 20.0523 2.4477 20.5 2.99998 20.5L11 20.5C11.5523 20.5 12 20.9477 12 21.5C12 22.0523 11.5523 22.5 11 22.5L2.99998 22.5C1.34313 22.5 -1.52588e-05 21.1569 -1.52588e-05 19.5V3.5C-1.52588e-05 1.84315 1.34313 0.5 2.99998 0.5Z" fill="#282828"/>
<path fill-rule="evenodd" clip-rule="evenodd" d="M19.5114 10.1901C20.1629 10.9419 20.1629 12.0581 19.5114 12.8098L15.3347 17.6291C14.1221 19.0282 11.8233 18.1707 11.8233 16.3193L11.8233 14.5H5.8233C4.71873 14.5 3.8233 13.6046 3.8233 12.5V10.5C3.8233 9.39542 4.71873 8.49999 5.8233 8.49999L11.8233 8.49999V6.68071C11.8233 4.8293 14.1221 3.97177 15.3347 5.37085L19.5114 10.1901ZM17.4324 12.1549C17.7581 11.7791 17.7581 11.2209 17.4324 10.8451L13.8233 6.68071V8.99999C13.8233 9.82841 13.1517 10.5 12.3233 10.5L5.8233 10.5V12.5L12.3233 12.5C13.1517 12.5 13.8233 13.1716 13.8233 14L13.8233 16.3193L17.4324 12.1549Z" fill="#282828"/>
</svg>
