<svg width="28" height="32" viewBox="0 0 28 32" fill="none" xmlns="http://www.w3.org/2000/svg">
<path d="M3.33333 13.8667V12.8H2.26666V13.8667H3.33333ZM11.8667 13.8667V12.8H10.8V13.8667H11.8667ZM11.8667 22.4H10.8V23.4667H11.8667V22.4ZM26.8 7.46667H27.8667V7.02507L27.5552 6.71147L26.8 7.46667ZM20.4 1.06667L21.1552 0.311467L20.8416 0H20.4V1.06667ZM3.33333 14.9333H5.46666V12.8H3.33333V14.9333ZM4.4 23.4667V18.1333H2.26666V23.4667H4.4ZM4.4 18.1333V13.8667H2.26666V18.1333H4.4ZM5.46666 17.0667H3.33333V19.2H5.46666V17.0667ZM6.53333 16C6.53333 16.2829 6.42095 16.5542 6.22091 16.7542C6.02087 16.9543 5.74956 17.0667 5.46666 17.0667V19.2C6.31536 19.2 7.12929 18.8629 7.72941 18.2627C8.32952 17.6626 8.66666 16.8487 8.66666 16H6.53333ZM5.46666 14.9333C5.74956 14.9333 6.02087 15.0457 6.22091 15.2458C6.42095 15.4458 6.53333 15.7171 6.53333 16H8.66666C8.66666 15.1513 8.32952 14.3374 7.72941 13.7373C7.12929 13.1371 6.31536 12.8 5.46666 12.8V14.9333ZM10.8 13.8667V22.4H12.9333V13.8667H10.8ZM11.8667 23.4667H14V21.3333H11.8667V23.4667ZM17.2 20.2667V16H15.0667V20.2667H17.2ZM14 12.8H11.8667V14.9333H14V12.8ZM17.2 16C17.2 15.1513 16.8629 14.3374 16.2627 13.7373C15.6626 13.1371 14.8487 12.8 14 12.8V14.9333C14.2829 14.9333 14.5542 15.0457 14.7542 15.2458C14.9543 15.4458 15.0667 15.7171 15.0667 16H17.2ZM14 23.4667C14.8487 23.4667 15.6626 23.1295 16.2627 22.5294C16.8629 21.9293 17.2 21.1154 17.2 20.2667H15.0667C15.0667 20.5496 14.9543 20.8209 14.7542 21.0209C14.5542 21.221 14.2829 21.3333 14 21.3333V23.4667ZM19.3333 12.8V23.4667H21.4667V12.8H19.3333ZM20.4 14.9333H25.7333V12.8H20.4V14.9333ZM20.4 19.2H23.6V17.0667H20.4V19.2ZM2.26666 10.6667V3.2H0.133331V10.6667H2.26666ZM25.7333 7.46667V10.6667H27.8667V7.46667H25.7333ZM3.33333 2.13333H20.4V0H3.33333V2.13333ZM19.6448 1.82187L26.0448 8.22187L27.5552 6.71147L21.1552 0.311467L19.6448 1.82187ZM2.26666 3.2C2.26666 2.9171 2.37905 2.64579 2.57908 2.44575C2.77912 2.24571 3.05043 2.13333 3.33333 2.13333V0C2.48464 0 1.67071 0.337142 1.07059 0.937258C0.470473 1.53737 0.133331 2.35131 0.133331 3.2H2.26666ZM0.133331 25.6V28.8H2.26666V25.6H0.133331ZM3.33333 32H24.6667V29.8667H3.33333V32ZM27.8667 28.8V25.6H25.7333V28.8H27.8667ZM24.6667 32C25.5154 32 26.3293 31.6629 26.9294 31.0627C27.5295 30.4626 27.8667 29.6487 27.8667 28.8H25.7333C25.7333 29.0829 25.621 29.3542 25.4209 29.5542C25.2209 29.7543 24.9496 29.8667 24.6667 29.8667V32ZM0.133331 28.8C0.133331 29.6487 0.470473 30.4626 1.07059 31.0627C1.67071 31.6629 2.48464 32 3.33333 32V29.8667C3.05043 29.8667 2.77912 29.7543 2.57908 29.5542C2.37905 29.3542 2.26666 29.0829 2.26666 28.8H0.133331Z" fill="#7A807B"/>
</svg>
