<svg width="22" height="22" viewBox="0 0 22 22" fill="none" xmlns="http://www.w3.org/2000/svg">
<path fill-rule="evenodd" clip-rule="evenodd" d="M16.3545 21.2322C14.3344 20.7261 10.1989 19.2993 6.44976 15.5501C2.70065 11.801 1.2738 7.66553 0.767675 5.64544C0.47681 4.48453 1.00058 3.36428 1.88869 2.72991L4.21694 1.06687C5.57922 0.0938182 7.47432 0.424007 8.42724 1.80045L9.89303 3.9177C10.5152 4.81644 10.3006 6.04824 9.41112 6.68359L8.24234 7.51843C8.41923 8.19504 8.96939 9.5845 10.6924 11.3075C12.4154 13.0305 13.8049 13.5807 14.4815 13.7576L15.3163 12.5888C15.9517 11.6993 17.1835 11.4847 18.0822 12.1069L20.1995 13.5727C21.5759 14.5256 21.9061 16.4207 20.933 17.783L19.27 20.1112C18.6356 20.9993 17.5154 21.5231 16.3545 21.2322ZM7.86397 14.1359C11.2734 17.5453 15.0358 18.84 16.8405 19.2922C17.1043 19.3583 17.4232 19.2558 17.6425 18.9487L19.3056 16.6205C19.6299 16.1664 19.5199 15.5347 19.061 15.2171L16.9438 13.7513L16.0479 15.0055C15.6818 15.5181 15.0047 15.9201 14.2163 15.75C13.2323 15.5377 11.4133 14.8568 9.27819 12.7217C7.1431 10.5866 6.46219 8.76764 6.24987 7.78364C6.07977 6.99524 6.48181 6.31815 6.99439 5.95202L8.24864 5.05612L6.78285 2.93886C6.46521 2.48005 5.83351 2.36999 5.37942 2.69434L3.05117 4.35738C2.74413 4.57669 2.64162 4.89559 2.70771 5.15937C3.15989 6.96412 4.45459 10.7266 7.86397 14.1359Z" fill="#34A853"/>
</svg>
