<svg width="72" height="72" viewBox="0 0 72 72" fill="none" xmlns="http://www.w3.org/2000/svg">
<rect width="72" height="72" rx="36" fill="#34A853" fill-opacity="0.5"/>
<mask id="mask0_1156_3218" style="mask-type:alpha" maskUnits="userSpaceOnUse" x="12" y="12" width="48" height="48">
<rect x="12" y="12" width="48" height="48" fill="#D9D9D9"/>
</mask>
<g mask="url(#mask0_1156_3218)">
<path d="M28 46.3499V25.6499C28 25.0832 28.2 24.6082 28.6 24.2249C29 23.8416 29.4667 23.6499 30 23.6499C30.1667 23.6499 30.3417 23.6749 30.525 23.7249C30.7083 23.7749 30.8833 23.8499 31.05 23.9499L47.35 34.2999C47.65 34.4999 47.875 34.7499 48.025 35.0499C48.175 35.3499 48.25 35.6666 48.25 35.9999C48.25 36.3332 48.175 36.6499 48.025 36.9499C47.875 37.2499 47.65 37.4999 47.35 37.6999L31.05 48.0499C30.8833 48.1499 30.7083 48.2249 30.525 48.2749C30.3417 48.3249 30.1667 48.3499 30 48.3499C29.4667 48.3499 29 48.1582 28.6 47.7749C28.2 47.3916 28 46.9166 28 46.3499Z" fill="white"/>
</g>
</svg>
