<svg width="19" height="22" viewBox="0 0 19 22" fill="none"
    xmlns="http://www.w3.org/2000/svg">
    <path fill-rule="evenodd" clip-rule="evenodd" d="M9.5 11C12.2614 11 14.5 8.53756 14.5 5.5C14.5 2.46243 12.2614 0 9.5 0C6.73858 0 4.5 2.46243 4.5 5.5C4.5 8.53756 6.73858 11 9.5 11ZM9.5 8.8C7.84315 8.8 6.5 7.32254 6.5 5.5C6.5 3.67746 7.84315 2.2 9.5 2.2C11.1569 2.2 12.5 3.67746 12.5 5.5C12.5 7.32254 11.1569 8.8 9.5 8.8Z" fill="white"/>
    <path fill-rule="evenodd" clip-rule="evenodd" d="M16.6029 13.1087C15.7604 12.2634 14.457 12.0811 13.4161 12.6987C13.2257 12.8117 13.0581 12.9151 12.9036 13.0105C12.4937 13.2635 12.1755 13.4598 11.7654 13.6283C11.25 13.8401 10.5835 14 9.5 14C8.42682 14 7.74926 13.8491 7.22609 13.6447C6.76355 13.464 6.39822 13.237 5.91685 12.9378C5.82296 12.8795 5.72448 12.8183 5.62019 12.7543C4.57587 12.1132 3.23464 12.2622 2.36415 13.1419C1.98443 13.5256 1.54036 14.0219 1.1849 14.5626C0.846032 15.0781 0.5 15.7638 0.5 16.5V19.0003C0.5 20.6574 1.84334 22 3.5 22H15.5C17.1567 22 18.5 20.6574 18.5 19.0003V16.5C18.5 15.7541 18.1447 15.0592 17.7996 14.5391C17.437 13.9927 16.9852 13.4923 16.6029 13.1087ZM14.4367 14.4187C14.6759 14.2768 14.978 14.3116 15.1863 14.5205C15.5214 14.8568 15.8724 15.2521 16.1331 15.645C16.4113 16.0642 16.5 16.352 16.5 16.5V19.0003C16.5 19.5524 16.0525 20 15.5 20H3.5C2.94752 20 2.5 19.5524 2.5 19.0003V16.5C2.5 16.3549 2.58549 16.0729 2.85613 15.6613C3.11017 15.2748 3.45358 14.8844 3.78579 14.5487C3.99412 14.3381 4.31106 14.2974 4.57389 14.4588C4.65661 14.5095 4.74087 14.5621 4.82694 14.6159C5.30938 14.9171 5.84918 15.254 6.49836 15.5076C7.29304 15.8181 8.22419 16 9.5 16C10.8002 16 11.7313 15.8046 12.5254 15.4783C13.1006 15.242 13.6079 14.9282 14.0558 14.6512C14.1879 14.5695 14.3148 14.491 14.4367 14.4187Z" fill="white"/>
</svg>
