<svg width="24" height="25" viewBox="0 0 24 25" fill="none"
    xmlns="http://www.w3.org/2000/svg">
    <path fill-rule="evenodd" clip-rule="evenodd" d="M17.0392 16.1244C18.2714 14.584 19.0082 12.6301 19.0082 10.5041C19.0082 5.53127 14.9769 1.5 10.0041 1.5C5.03127 1.5 1 5.53127 1 10.5041C1 15.4769 5.03127 19.5082 10.0041 19.5082C12.1301 19.5082 14.084 18.7714 15.6244 17.5392L21.2921 23.207C21.6828 23.5977 22.3163 23.5977 22.707 23.207C23.0977 22.8163 23.0977 22.1828 22.707 21.7921L17.0392 16.1244ZM10.0041 17.5173C6.1308 17.5173 2.99087 14.3774 2.99087 10.5041C2.99087 6.6308 6.1308 3.49087 10.0041 3.49087C13.8774 3.49087 17.0173 6.6308 17.0173 10.5041C17.0173 14.3774 13.8774 17.5173 10.0041 17.5173Z" fill="white"/>
</svg>
