<svg width="14" height="15" viewBox="0 0 14 15" fill="none" xmlns="http://www.w3.org/2000/svg">
<path d="M3.66665 8.83329C3.66665 8.4651 3.96512 8.16663 4.33331 8.16663C4.7015 8.16663 4.99998 8.4651 4.99998 8.83329C4.99998 9.20148 4.7015 9.49996 4.33331 9.49996C3.96512 9.49996 3.66665 9.20148 3.66665 8.83329Z" fill="white"/>
<path d="M4.33331 10.8333C3.96512 10.8333 3.66665 11.1318 3.66665 11.5C3.66665 11.8681 3.96512 12.1666 4.33331 12.1666C4.7015 12.1666 4.99998 11.8681 4.99998 11.5C4.99998 11.1318 4.7015 10.8333 4.33331 10.8333Z" fill="white"/>
<path d="M6.33331 8.83329C6.33331 8.4651 6.63179 8.16663 6.99998 8.16663C7.36817 8.16663 7.66665 8.4651 7.66665 8.83329C7.66665 9.20148 7.36817 9.49996 6.99998 9.49996C6.63179 9.49996 6.33331 9.20148 6.33331 8.83329Z" fill="white"/>
<path d="M6.99998 10.8333C6.63179 10.8333 6.33331 11.1318 6.33331 11.5C6.33331 11.8681 6.63179 12.1666 6.99998 12.1666C7.36817 12.1666 7.66665 11.8681 7.66665 11.5C7.66665 11.1318 7.36817 10.8333 6.99998 10.8333Z" fill="white"/>
<path d="M8.99998 8.83329C8.99998 8.4651 9.29846 8.16663 9.66665 8.16663C10.0348 8.16663 10.3333 8.4651 10.3333 8.83329C10.3333 9.20148 10.0348 9.49996 9.66665 9.49996C9.29846 9.49996 8.99998 9.20148 8.99998 8.83329Z" fill="white"/>
<path d="M9.66665 10.8333C9.29846 10.8333 8.99998 11.1318 8.99998 11.5C8.99998 11.8681 9.29846 12.1666 9.66665 12.1666C10.0348 12.1666 10.3333 11.8681 10.3333 11.5C10.3333 11.1318 10.0348 10.8333 9.66665 10.8333Z" fill="white"/>
<path fill-rule="evenodd" clip-rule="evenodd" d="M2.99998 0.833293C2.99998 0.465103 3.29846 0.166626 3.66665 0.166626C4.03484 0.166626 4.33331 0.465103 4.33331 0.833293V1.49996H9.66665V0.833293C9.66665 0.465103 9.96513 0.166626 10.3333 0.166626C10.7015 0.166626 11 0.465103 11 0.833293V1.49996H11.6666C12.7712 1.49996 13.6666 2.39539 13.6666 3.49996V12.8333C13.6666 13.9379 12.7712 14.8333 11.6666 14.8333H2.33331C1.22874 14.8333 0.333313 13.9379 0.333313 12.8333V3.49996C0.333313 2.39539 1.22874 1.49996 2.33331 1.49996H2.99998V0.833293ZM9.66665 2.83329V3.49996C9.66665 3.86815 9.96513 4.16663 10.3333 4.16663C10.7015 4.16663 11 3.86815 11 3.49996V2.83329H11.6666C12.0348 2.83329 12.3333 3.13177 12.3333 3.49996V5.49996H1.66665V3.49996C1.66665 3.13177 1.96512 2.83329 2.33331 2.83329H2.99998V3.49996C2.99998 3.86815 3.29846 4.16663 3.66665 4.16663C4.03484 4.16663 4.33331 3.86815 4.33331 3.49996V2.83329H9.66665ZM1.66665 6.83329V12.8333C1.66665 13.2015 1.96512 13.5 2.33331 13.5H11.6666C12.0348 13.5 12.3333 13.2015 12.3333 12.8333V6.83329H1.66665Z" fill="white"/>
</svg>
