<svg width="14" height="13" viewBox="0 0 14 13" fill="none" xmlns="http://www.w3.org/2000/svg">
<path d="M6.90489 0.292705C6.93483 0.200574 7.06517 0.200574 7.09511 0.292705L8.54915 4.76778C8.56253 4.80898 8.60093 4.83688 8.64425 4.83688H13.3496C13.4465 4.83688 13.4868 4.96084 13.4084 5.01778L9.60168 7.78353C9.56663 7.809 9.55196 7.85413 9.56535 7.89534L11.0194 12.3704C11.0493 12.4625 10.9439 12.5392 10.8655 12.4822L7.05878 9.71647C7.02373 9.691 6.97627 9.691 6.94122 9.71647L3.13449 12.4822C3.05612 12.5392 2.95067 12.4625 2.98061 12.3704L4.43465 7.89534C4.44804 7.85413 4.43337 7.809 4.39832 7.78353L0.591594 5.01778C0.513223 4.96084 0.5535 4.83688 0.650372 4.83688H5.35575C5.39907 4.83688 5.43747 4.80898 5.45085 4.76778L6.90489 0.292705Z" fill="#FF9900"/>
</svg>
