<svg width="12" height="16" viewBox="0 0 12 16" fill="none" xmlns="http://www.w3.org/2000/svg">
<path d="M4 7.33329C4 6.9651 4.29848 6.66663 4.66667 6.66663C5.03486 6.66663 5.33333 6.9651 5.33333 7.33329V11.3333C5.33333 11.7015 5.03486 12 4.66667 12C4.29848 12 4 11.7015 4 11.3333V7.33329Z" fill="#7A807B"/>
<path d="M7.33333 6.66663C6.96514 6.66663 6.66667 6.9651 6.66667 7.33329V11.3333C6.66667 11.7015 6.96514 12 7.33333 12C7.70152 12 8 11.7015 8 11.3333V7.33329C8 6.9651 7.70152 6.66663 7.33333 6.66663Z" fill="#7A807B"/>
<path fill-rule="evenodd" clip-rule="evenodd" d="M3.68742 0.666626C1.68243 0.666626 0.131139 2.4239 0.379827 4.41341L1.52582 13.5814C1.65093 14.5822 2.50173 15.3333 3.51038 15.3333H8.48962C9.49827 15.3333 10.3491 14.5822 10.4742 13.5814L11.6202 4.41341C11.8689 2.4239 10.3176 0.666626 8.31258 0.666626H3.68742ZM1.80099 3.33329C2.07377 2.56363 2.80783 1.99996 3.68742 1.99996H8.31258C9.19217 1.99996 9.92623 2.56363 10.199 3.33329H1.80099ZM1.75519 4.66663L2.84886 13.416C2.89056 13.7496 3.17416 14 3.51038 14H8.48962C8.82584 14 9.10944 13.7496 9.15114 13.416L10.2448 4.66663H1.75519Z" fill="#7A807B"/>
</svg>
