<svg width="22" height="23" viewBox="0 0 22 23" fill="none" xmlns="http://www.w3.org/2000/svg">
<path fill-rule="evenodd" clip-rule="evenodd" d="M22 21.4999C22 22.0522 21.5523 22.4999 21 22.4999H1C0.447715 22.4999 0 22.0522 0 21.4999C0 20.9477 0.447716 20.4999 1 20.4999H21C21.5523 20.4999 22 20.9477 22 21.4999Z" fill="#34A853"/>
<path fill-rule="evenodd" clip-rule="evenodd" d="M9.69014 0.811864C10.4419 0.160367 11.5581 0.160369 12.3099 0.811864L17.1291 4.98857C18.5282 6.20111 17.6707 8.49995 15.8193 8.49995H14V16.4999C14 17.6045 13.1046 18.4999 12 18.4999H10C8.89543 18.4999 8 17.6045 8 16.4999V8.49995H6.18073C4.32932 8.49995 3.47178 6.20111 4.87086 4.98857L9.69014 0.811864ZM11.6549 2.89085C11.2791 2.5651 10.7209 2.5651 10.3451 2.89085L6.18073 6.49995L8.5 6.49995C9.32843 6.49995 10 7.17152 10 7.99995V16.4999H12V7.99995C12 7.17152 12.6716 6.49995 13.5 6.49995H15.8193L11.6549 2.89085Z" fill="#34A853"/>
</svg>
