<svg width="23" height="16" viewBox="0 0 23 16" fill="none"
    xmlns="http://www.w3.org/2000/svg">
    <path fill-rule="evenodd" clip-rule="evenodd" d="M3.5 2C2.94772 2 2.5 2.44772 2.5 3V13C2.5 13.5523 2.94772 14 3.5 14H13.5C14.0523 14 14.5 13.5523 14.5 13V11.9343C14.5 10.7362 15.8352 10.0216 16.8321 10.6862L20.5 13.1315V2.86852L16.8321 5.31382C15.8352 5.97837 14.5 5.26378 14.5 4.06574V3C14.5 2.44772 14.0523 2 13.5 2H3.5ZM0.5 3C0.5 1.34315 1.84315 0 3.5 0H13.5C15.1569 0 16.5 1.34315 16.5 3V3.13148L19.3906 1.20442C20.7197 0.318344 22.5 1.27112 22.5 2.86852V13.1315C22.5 14.7289 20.7197 15.6817 19.3906 14.7956L16.5 12.8685V13C16.5 14.6569 15.1569 16 13.5 16H3.5C1.84315 16 0.5 14.6569 0.5 13V3Z" fill="white"/>
</svg>
